<?xml version="1.0" encoding="UTF-8" standalone="no"?>
<!DOCTYPE svg PUBLIC "-//W3C//DTD SVG 1.1//EN"
"http://www.w3.org/Graphics/SVG/1.1/DTD/svg11.dtd">


<!-- Page 1 -->
<svg x="0" y="0" width="664" height="156" viewBox="0 0 303 156" version="1.1" xmlns="http://www.w3.org/2000/svg" xmlns:xlink="http://www.w3.org/1999/xlink"
style="display: block;margin-left: auto;margin-right: auto;">
<defs>

<style type="text/css"><![CDATA[

.g1_1{
fill: #FFD9B3;
stroke: #000000;
stroke-width: 2.130914;
stroke-linecap: butt;
stroke-linejoin: miter;
}
.g2_1{
fill: none;
stroke: #FFFFFF;
stroke-width: 0.9132446;
stroke-linecap: butt;
stroke-linejoin: miter;
}
.g3_1{
fill: none;
stroke: #000000;
stroke-width: 0.6088194;
stroke-linecap: butt;
stroke-linejoin: miter;
}
.g4_1{
fill: none;
stroke: #000000;
stroke-width: 0.48704025;
stroke-linecap: round;
stroke-linejoin: round;
}
.g5_1{
fill: none;
stroke: #000000;
stroke-width: 0.3443862;
stroke-linecap: round;
stroke-linejoin: round;
}
.g6_1{
fill: none;
stroke: #000000;
stroke-width: 0.47136733;
stroke-linecap: round;
stroke-linejoin: round;
}
.g7_1{
fill: none;
stroke: #000000;
stroke-width: 0.4582513;
stroke-linecap: round;
stroke-linejoin: round;
}

.s1_1{
font-size: 15.22px;
font-family: CMMI10_7;
fill: TRANSPARENT;
}
.s2_1{
font-size: 10.65px;
font-family: CMR7_8;
fill: TRANSPARENT;
}
.s3_1{
font-size: 15.22px;
font-family: CMR10_9;
fill: TRANSPARENT;
}
text::-moz-selection {
	color: transparent;
	background: rgba(0, 106, 173, 0.4);
}
text::selection {
	color: transparent;
	background: rgba(0, 106, 173, 0.4);
}

]]></style>

</defs>
<path d="M0,0
L0,156
L303,156
L303,0 Z " 
fill="#FFFFFF" stroke="none" />
<path d="M190.7,25.2c0,-10.5,-8.5,-19,-19,-19c-10.5,0,-19,8.5,-19,19c0,10.5,8.5,19,19,19c10.5,0,19,-8.5,19,-19Z" class="g1_1" />
<path d="M190.7,25.2c0,-10.5,-8.5,-19,-19,-19c-10.5,0,-19,8.5,-19,19c0,10.5,8.5,19,19,19c10.5,0,19,-8.5,19,-19Z" class="g2_1" />
<g fill="#000000" >
<use xlink:href="#f0_2" transform="matrix(10,0,0,10,164.9,27)" />
<use xlink:href="#f1_1" transform="matrix(7,0,0,7,171.7,29.3)" />
</g>
<text 
x="164" 
y="26" 
dx="0" 
class="s1_1"
>q</text>

<text 
x="171" 
y="29" 
dx="0" 
class="s2_1"
>0</text>

<path d="M132.3,25.2l17.4,0" class="g3_1" />
<path d="M147.9,22.8c0.1,0.9,1.8,2.2,2.3,2.4c-0.5,0.1,-2.2,1.5,-2.3,2.4" class="g4_1" />
<g fill="#000000" >
<use xlink:href="#f2_5" transform="matrix(10,0,0,10,95.5,29.9)" />
<use xlink:href="#f2_6" transform="matrix(10,0,0,10,101.5,29.9)" />
<use xlink:href="#f2_2" transform="matrix(10,0,0,10,107.4,29.9)" />
<use xlink:href="#f2_4" transform="matrix(10,0,0,10,115,29.9)" />
<use xlink:href="#f2_6" transform="matrix(10,0,0,10,121,29.9)" />
</g>
<text 
x="95" 
y="29" 
dx="0,0,0,0,0" 
class="s3_1"
>start</text>

<path d="M83.5,132.4c0,-10.5,-8.5,-19.1,-19,-19.1c-10.5,0,-19,8.6,-19,19.1c0,10.5,8.5,19,19,19c10.5,0,19,-8.5,19,-19Z" class="g3_1" />
<g fill="#000000" >
<use xlink:href="#f0_2" transform="matrix(10,0,0,10,57.7,134.2)" />
<use xlink:href="#f1_2" transform="matrix(7,0,0,7,64.5,136.4)" />
</g>
<text 
x="57" 
y="134" 
dx="0" 
class="s1_1"
>q</text>

<text 
x="64" 
y="136" 
dx="0" 
class="s2_1"
>1</text>

<path d="M297.9,132.4c0,-10.5,-8.5,-19.1,-19,-19.1c-10.5,0,-19,8.6,-19,19.1c0,10.5,8.5,19,19,19c10.5,0,19,-8.5,19,-19Z" class="g3_1" />
<g fill="#000000" >
<use xlink:href="#f0_2" transform="matrix(10,0,0,10,272.1,134.2)" />
<use xlink:href="#f1_3" transform="matrix(7,0,0,7,278.9,136.4)" />
</g>
<text 
x="272" 
y="134" 
dx="0" 
class="s1_1"
>q</text>

<text 
x="278" 
y="136" 
dx="0" 
class="s2_1"
>2</text>

<path d="M157.7,39.2L79.8,117.1" class="g3_1" />
<path d="M82.8,117.6C82,117,79.9,117.2,79.4,117.5c0.3,-0.5,0.5,-2.6,-0.1,-3.4" class="g5_1" />
<g fill="#000000" >
<use xlink:href="#f2_3" transform="matrix(10,0,0,10,104.1,73.6)" />
</g>
<text 
x="104" 
y="73" 
dx="0" 
class="s3_1"
>b</text>

<path d="M83.9,132.4l173.4,0" class="g3_1" />
<path d="M255.5,129.9c0.2,0.9,1.8,2.3,2.3,2.5c-0.5,0.1,-2.1,1.5,-2.3,2.4" class="g4_1" />
<g fill="#000000" >
<use xlink:href="#f2_2" transform="matrix(10,0,0,10,159,124)" />
<use xlink:href="#f2_1" transform="matrix(10,0,0,10,166.6,124)" />
<use xlink:href="#f2_3" transform="matrix(10,0,0,10,175.9,124)" />
</g>
<text 
x="159" 
y="124" 
dx="0,0,0,1.3" 
class="s3_1"
>a, b</text>

<path d="M45.8,137.4C15.6,145.5,15.6,119.3,43.7,126.8" class="g3_1" />
<path d="M42.5,123.9c-0.1,1,1.2,2.7,1.6,3c-0.5,0,-2.5,0.9,-2.8,1.8" class="g6_1" />
<g fill="#000000" >
<use xlink:href="#f2_2" transform="matrix(10,0,0,10,10.2,135.6)" />
</g>
<text 
x="10" 
y="135" 
dx="0" 
class="s3_1"
>a</text>

<path d="M178.5,43.8c15.6,42.7,39.5,66.5,80.1,81.2" class="g3_1" />
<path d="M257.7,122.1c-0.2,0.9,1,2.7,1.3,3c-0.4,0,-2.5,0.8,-2.9,1.6" class="g7_1" />
<g fill="#000000" >
<use xlink:href="#f0_1" transform="matrix(10,0,0,10,214.8,89.6)" />
</g>
<text 
x="214" 
y="89" 
dx="0" 
class="s1_1"
>ε</text>

<path d="M272.3,114.2C256.8,71.5,233,47.6,192.4,32.7" class="g3_1" />
<path d="M193.3,35.6c0.2,-0.9,-0.9,-2.7,-1.3,-3c0.5,0,2.5,-0.7,3,-1.5" class="g7_1" />
<g fill="#000000" >
<use xlink:href="#f2_2" transform="matrix(10,0,0,10,246.9,57.5)" />
</g>
<text 
x="246" 
y="57" 
dx="0" 
class="s3_1"
>a</text>


<defs>
	<path d="M267.4,16.8c85.5,0,171.1,97.8,194,140.6C466,163.5,550,498.1,550,507.2c0,10.7,-21.4,134.5,-120.7,134.5c-62.6,0,-142.1,-64.2,-189.4,-177.3c-26,-64.1,-70.3,-230.6,-70.3,-304c0,-26,6.1,-143.6,97.8,-143.6ZM249,-296.3c-19.8,0,-19.8,15.3,-19.8,16.8c0,30.6,15.2,30.6,35.1,30.6c85.6,1.5,97.8,7.6,110,50.4c4.6,13.7,55,219.9,68.8,273.4c-55,-55,-114.6,-91.6,-180.3,-91.6C151.3,-16.7,61.1,77.9,61.1,227.6c0,221.6,187.9,447.7,368.2,447.7c48.9,0,108.5,-24.5,142.1,-107c26,44.3,87.1,105.5,103.9,105.5c10.7,0,15.3,-9.2,15.3,-15.3L479.7,-190.9c-3,-13.7,-6.1,-22.9,-6.1,-33.6c0,-13.7,0,-24.4,73.3,-24.4c24.5,0,39.8,0,39.8,-16.8c0,-30.6,-19.9,-30.6,-77.9,-30.6c-55,4.6,-107,4.6,-157.4,4.6c-53.5,-4.6,50.4,-4.6,-102.4,-4.6Z" 
	id="f0_2"
	transform="scale(0.001,-0.001)" />

	<path d="M433.9,12.2c61.1,0,165,33.6,195.5,172.7c19.9,96.2,19.9,209.3,19.9,322.3c0,132.9,-1.5,242.9,-26,325.4C595.8,921.3,516.4,971.7,433.9,971.7c-62.6,0,-160.4,-32.1,-192.5,-152.8C218.5,734.9,218.5,618.8,218.5,507.2c0,-113,0,-238.3,21.4,-328.4C270.4,53.5,363.6,12.2,433.9,12.2Zm0,-42.7C79.4,-30.5,79.4,377.4,79.4,487.4c0,110,0,527,354.5,527c122.2,0,216.9,-61.1,264.3,-131.3c70.3,-107,90.1,-227.7,90.1,-395.7c0,-110,0,-517.9,-354.4,-517.9Z" 
	id="f1_1"
	transform="scale(0.001,-0.001)" />

	<path d="M67.2,-16.7C50.4,-16.7,50.4,-6,50.4,19.9l0,201.6c0,27.5,0,38.2,19.9,38.2c15.3,0,16.8,-6.1,21.4,-25.9c29,-129.9,84,-217,212.3,-217c119.2,0,172.7,61.1,172.7,139c0,110,-125.3,134.5,-158.9,140.6C207.8,317.8,165,326.9,116.1,366.7C74.9,400.3,50.4,443.1,50.4,496.5c0,85.6,58.1,187.9,244.5,187.9c22.9,0,85.5,0,143.6,-42.7c6.1,4.6,21.4,18.3,25.9,24.4c19.9,18.3,23,18.3,30.6,18.3c16.8,0,16.8,-10.6,16.8,-36.6l0,-154.3c0,-29.1,0,-36.7,-19.9,-36.7c-3,0,-16.8,0,-18.3,13.8c-3,47.3,-10.7,184.8,-178.7,184.8C163.5,655.4,123.8,592.8,123.8,539.3C123.8,450.7,226.1,430.8,311.7,414c64.1,-12.2,123.7,-24.4,174.1,-73.3C504.2,322.4,550,276.5,550,195.6C550,85.6,479.7,-16.7,304,-16.7c-32.1,0,-100.8,1.5,-168,65.6C108.5,19.9,108.5,16.8,105.4,13.8c-29,-29,-30.5,-30.5,-38.2,-30.5Z" 
	id="f2_5"
	transform="scale(0.001,-0.001)" />

	<path d="M356,-16.7c-55,0,-197.1,18.2,-197.1,206.1l0,421.7L29,611.1l0,33.6c149.8,6.1,195.6,169.6,197.1,294.9l38.2,0l0,-281.1l218.5,0l0,-47.4l-218.5,0l0,-424.7c0,-26,0,-165,102.4,-165c56.5,0,102.3,58,102.3,171.1l0,84l38.2,0l0,-87.1C507.2,91.7,464.4,-16.7,356,-16.7Z" 
	id="f2_6"
	transform="scale(0.001,-0.001)" />

	<path d="M319.3,16.8c68.8,0,178.8,52,178.8,197.1l0,152.8C246,357.5,181.8,230.7,181.8,146.7C181.8,70.3,244.4,16.8,319.3,16.8ZM308.6,-16.7C212.4,-16.7,64.2,21.4,64.2,145.1c0,67.3,38.2,146.7,152.7,198.7c96.3,45.8,203.2,50.4,281.2,55l0,56.5c0,136,-87.1,195.5,-162,195.5c-48.9,0,-123.7,-16.8,-165,-70.2C241.4,579,249,528.6,249,510.3C249,470.6,221.5,440,178.8,440c-39.8,0,-70.3,26,-70.3,71.8c0,100.8,105.4,172.6,230.7,172.6c73.3,0,149.7,-24.4,209.3,-84c55,-56.5,55,-116.1,55,-180.3l0,-305.5c0,-7.7,6.1,-76.4,56.5,-76.4c16.8,0,55,9.2,55,97.8l0,85.5l38.2,0l0,-85.5C753.2,12.2,660,-9.1,627.9,-9.1c-71.8,0,-113,64.1,-119.1,125.2C479.7,44.3,409.4,-16.7,308.6,-16.7Z" 
	id="f2_2"
	transform="scale(0.001,-0.001)" />

	<path d="M42.8,0l0,47.4c102.3,0,119.1,0,119.1,68.7l0,409.5c0,74.8,-12.2,85.5,-119.1,85.5l0,47.4l212.3,16.8l0,-168.1c21.4,65.7,76.4,168.1,188,168.1c65.7,0,113,-44.3,113,-93.2c0,-48.9,-38.2,-67.2,-65.7,-67.2c-33.6,0,-65.7,22.9,-65.7,65.7c0,39.7,30.6,58,35.2,59.5c-3.1,1.6,-6.1,1.6,-16.8,1.6c-116.2,0,-180.3,-136,-180.3,-287.3l0,-235.2c0,-55,3,-71.8,116.1,-71.8l32.1,0L349.9,4.6l-175.7,0C102.4,1.5,216.9,0,42.8,0Z" 
	id="f2_4"
	transform="scale(0.001,-0.001)" />

	<path d="M177.2,0l0,55l58.1,0c152.8,0,152.8,19.9,152.8,70.3l0,779.1C304,861.7,203.2,861.7,166.5,861.7l0,55c62.7,0,201.7,1.5,299.5,97.7c42.8,0,45.8,-1.5,45.8,-42.7l0,-846.4c0,-50.4,0,-70.3,152.8,-70.3l58,0L689,1.5C496.5,6.1,449.2,6.1,392.6,6.1C204.7,1.5,449.2,0,177.2,0Z" 
	id="f1_2"
	transform="scale(0.001,-0.001)" />

	<path d="M96.3,0c0,42.8,0,45.8,15.2,59.6L479.7,423.2c48.9,55,143.6,160.4,143.6,293.3c0,123.8,-79.4,242.9,-232.2,242.9c-71.8,0,-175.7,-33.6,-223,-142c79.4,0,90.1,-53.5,90.1,-81c0,-55,-44.3,-81,-81,-81c-15.3,0,-80.9,7.7,-80.9,85.6c0,140.5,128.3,273.4,317.7,273.4c195.6,0,357.5,-113,357.5,-297.9c0,-145.1,-105.4,-239.8,-218.4,-330C461.4,314.7,407.9,271.9,247.5,129.9l281.1,0c21.4,0,139,0,151.3,9.1c19.8,15.3,35.1,105.4,39.7,139.1l51.9,0L725.7,0Z" 
	id="f1_3"
	transform="scale(0.001,-0.001)" />

	<path d="M449.2,16.8c82.5,0,140.5,50.4,172.6,97.8c44.3,68.7,47.4,160.4,47.4,216.9c0,62.7,-4.6,149.8,-44.3,212.4c-36.7,58,-91.7,97.8,-160.5,97.8c-36.6,0,-120.6,-12.3,-180.2,-97.8c-16.8,-24.5,-16.8,-26,-16.8,-55l0,-314.7c0,-27.5,0,-32.1,21.4,-64.2C325.4,53.5,380.4,16.8,449.2,16.8Zm6.1,-33.5C342.2,-16.7,278.1,59.6,255.1,94.7C213.9,22.9,201.7,1.5,200.1,0L161.9,0l0,910.6c0,74.8,-12.2,85.5,-119.1,85.5l0,47.4l220,16.8l0,-484.3c24.4,27.5,90.1,99.3,209.3,99.3C646.3,675.3,796,524,796,330C796,132.9,637.1,-16.7,455.3,-16.7Z" 
	id="f2_3"
	transform="scale(0.001,-0.001)" />

	<path d="M171.1,-294.8c-7.6,0,-15.3,6.1,-15.3,16.8c0,6.2,1.6,7.7,10.7,16.8c67.3,71.9,110,165,110,262.7c0,21.4,-1.5,22.9,-3,22.9l-3.1,-3C255.1,9.2,236.8,0,212.4,0c-55,0,-81,41.3,-81,81c0,39.7,27.5,80.9,81,80.9c61.1,0,97.7,-62.6,97.7,-160.4c0,-175.6,-120.7,-296.3,-139,-296.3Z" 
	id="f2_1"
	transform="scale(0.001,-0.001)" />

	<path d="M346.8,359c58.1,0,61.1,1.6,84,12.3c-27.5,7.6,-33.6,9.1,-71.8,9.1c-25.9,0,-58,-1.5,-93.2,-13.7c29.1,-7.7,47.4,-7.7,81,-7.7Zm-58,-392.5c-162,0,-249.1,93.1,-249.1,192.4c0,70.3,48.9,155.8,139.1,206.2c-6.2,4.6,-61.2,42.8,-61.2,108.5c0,116.1,165,218.5,340.7,218.5C562.2,692.1,655.4,634,655.4,605c0,-21.4,-21.4,-41.2,-41.2,-41.2c-10.7,0,-13.8,3,-30.6,15.2c-61.1,42.8,-116.1,42.8,-140.5,42.8c-137.5,0,-287.3,-55,-287.3,-148.2c0,-41.2,26,-70.3,61.1,-88.6c56.6,26,110,29,142.1,29c58.1,0,111.6,-4.6,111.6,-41.2c0,-47.4,-84.1,-47.4,-123.8,-47.4c-36.7,0,-81,0,-131.4,21.4C122.2,301,79.4,220,79.4,168.1C79.4,59.6,209.3,36.7,302.5,36.7c183.3,0,220,56.5,241.4,91.6c3,4.6,7.6,10.7,15.3,10.7c9.1,0,16.8,-6.1,16.8,-15.2c0,-23,-85.6,-157.3,-287.2,-157.3Z" 
	id="f0_1"
	transform="scale(0.001,-0.001)" />


</defs>

<!-- Any embedded fonts defined here -->
<style type="text/css" ><![CDATA[

@font-face {
	font-family: CMR10_9;
	src: url("fonts/CMR10_9.woff") format("woff");
}

@font-face {
	font-family: CMMI10_7;
	src: url("fonts/CMMI10_7.woff") format("woff");
}

@font-face {
	font-family: CMR7_8;
	src: url("fonts/CMR7_8.woff") format("woff");
}

]]></style>

</svg>
