<?xml version="1.0" encoding="UTF-8" standalone="no"?>
<!DOCTYPE svg PUBLIC "-//W3C//DTD SVG 1.1//EN"
"http://www.w3.org/Graphics/SVG/1.1/DTD/svg11.dtd">


<!-- Page 1 -->
<svg x="0" y="0" width="664" height="48" viewBox="0 0 157 48" version="1.1" xmlns="http://www.w3.org/2000/svg" xmlns:xlink="http://www.w3.org/1999/xlink"
style="display: block;margin-left: auto;margin-right: auto;">
<defs>

<style type="text/css"><![CDATA[

.g1_1{
fill: #FFD9B3;
stroke: #000000;
stroke-width: 2.130914;
stroke-linecap: butt;
stroke-linejoin: miter;
}
.g2_1{
fill: none;
stroke: #FFFFFF;
stroke-width: 0.9132446;
stroke-linecap: butt;
stroke-linejoin: miter;
}
.g3_1{
fill: none;
stroke: #000000;
stroke-width: 0.6088194;
stroke-linecap: butt;
stroke-linejoin: miter;
}
.g4_1{
fill: none;
stroke: #000000;
stroke-width: 0.48704025;
stroke-linecap: round;
stroke-linejoin: round;
}

.s1_1{
font-size: 15.22px;
font-family: CMSY10_7;
fill: TRANSPARENT;
}
.s2_1{
font-size: 15.22px;
font-family: CMMI10_8;
fill: TRANSPARENT;
}
.s3_1{
font-size: 10.65px;
font-family: CMR7_9;
fill: TRANSPARENT;
}
.s4_1{
font-size: 15.22px;
font-family: CMR10_a;
fill: TRANSPARENT;
}
text::-moz-selection {
	color: transparent;
	background: rgba(0, 106, 173, 0.4);
}
text::selection {
	color: transparent;
	background: rgba(0, 106, 173, 0.4);
}

]]></style>

</defs>
<path d="M0,0
L0,48
L157,48
L157,0 Z " 
fill="#FFFFFF" stroke="none" />
<path d="M151.4,24.1c0,-9.9,-18.8,-17.9,-42,-17.9c-23.2,0,-42,8,-42,17.9c0,9.9,18.8,17.9,42,17.9c23.2,0,42,-8,42,-17.9Z" class="g1_1" />
<path d="M151.4,24.1c0,-9.9,-18.8,-17.9,-42,-17.9c-23.2,0,-42,8,-42,17.9c0,9.9,18.8,17.9,42,17.9c23.2,0,42,-8,42,-17.9Z" class="g2_1" />
<g fill="#000000" >
<use xlink:href="#f0_1" transform="matrix(10,0,0,10,84.8,27.9)" />
<use xlink:href="#f1_2" transform="matrix(10,0,0,10,92.4,27.9)" />
</g>
<text 
x="84" 
y="27" 
dx="0" 
class="s1_1"
>{</text>

<g fill="#000000" >
<use xlink:href="#f2_1" transform="matrix(7,0,0,7,99.2,30.2)" />
</g>
<text 
x="92" 
y="27" 
dx="0" 
class="s2_1"
>q</text>

<g fill="#000000" >
<use xlink:href="#f1_1" transform="matrix(10,0,0,10,106,27.9)" />
</g>
<text 
x="99" 
y="30" 
dx="0" 
class="s3_1"
>0</text>

<g fill="#000000" >
<use xlink:href="#f1_2" transform="matrix(10,0,0,10,112.8,27.9)" />
<use xlink:href="#f2_2" transform="matrix(7,0,0,7,119.5,30.2)" />
</g>
<text 
x="105" 
y="27" 
dx="0,0,-1.3" 
class="s2_1"
>, q</text>

<g fill="#000000" >
<use xlink:href="#f0_2" transform="matrix(10,0,0,10,126.4,27.9)" />
</g>
<text 
x="119" 
y="30" 
dx="0" 
class="s3_1"
>2</text>

<text 
x="126" 
y="27" 
dx="0" 
class="s1_1"
>}</text>

<path d="M47,24.1l17.4,0" class="g3_1" />
<path d="M62.6,21.7c0.1,0.9,1.8,2.2,2.3,2.4c-0.5,0.1,-2.2,1.5,-2.3,2.4" class="g4_1" />
<g fill="#000000" >
<use xlink:href="#f3_3" transform="matrix(10,0,0,10,10.2,28.8)" />
<use xlink:href="#f3_4" transform="matrix(10,0,0,10,16.2,28.8)" />
<use xlink:href="#f3_1" transform="matrix(10,0,0,10,22.1,28.8)" />
<use xlink:href="#f3_2" transform="matrix(10,0,0,10,29.7,28.8)" />
<use xlink:href="#f3_4" transform="matrix(10,0,0,10,35.7,28.8)" />
</g>
<text 
x="10" 
y="28" 
dx="0,0,0,0,0" 
class="s4_1"
>start</text>


<defs>
	<path d="M623.3,-381.8c-59.5,0,-160.4,16.8,-220,62.6C330,-261.2,330,-212.3,330,-148.1l0,302.4c0,55,0,58.1,-4.6,74.9C308.6,304,235.3,359,134.4,365.1c-15.2,1.6,-24.4,1.6,-24.4,16.8c0,9.2,6.1,15.3,13.8,16.9c33.6,1.5,91.6,4.5,145.1,48.8C330,498.1,330,546.9,330,606.5l0,348.4c1.5,113,140.6,190.9,293.3,190.9c16.8,0,29.1,0,29.1,-16.8c0,-9.1,-6.1,-15.2,-13.8,-16.8C472.1,1101.5,432.4,1003.8,432.4,942.6l0,-366.6c0,-88.6,-55,-158.9,-180.3,-194.1c42.8,-12.2,87.1,-27.5,119.2,-59.5c48.8,-48.9,61.1,-74.9,61.1,-145.2l0,-320.7c0,-55,0,-58.1,4.5,-71.8c19.9,-77.9,94.8,-126.8,191,-132.9c15.3,-1.6,24.5,-1.6,24.5,-16.8c0,-16.8,-12.3,-16.8,-29.1,-16.8Z" 
	id="f0_1"
	transform="scale(0.001,-0.001)" />

	<path d="M267.4,16.8c85.5,0,171.1,97.8,194,140.6C466,163.5,550,498.1,550,507.2c0,10.7,-21.4,134.5,-120.7,134.5c-62.6,0,-142.1,-64.2,-189.4,-177.3c-26,-64.1,-70.3,-230.6,-70.3,-304c0,-26,6.1,-143.6,97.8,-143.6ZM249,-296.3c-19.8,0,-19.8,15.3,-19.8,16.8c0,30.6,15.2,30.6,35.1,30.6c85.6,1.5,97.8,7.6,110,50.4c4.6,13.7,55,219.9,68.8,273.4c-55,-55,-114.6,-91.6,-180.3,-91.6C151.3,-16.7,61.1,77.9,61.1,227.6c0,221.6,187.9,447.7,368.2,447.7c48.9,0,108.5,-24.5,142.1,-107c26,44.3,87.1,105.5,103.9,105.5c10.7,0,15.3,-9.2,15.3,-15.3L479.7,-190.9c-3,-13.7,-6.1,-22.9,-6.1,-33.6c0,-13.7,0,-24.4,73.3,-24.4c24.5,0,39.8,0,39.8,-16.8c0,-30.6,-19.9,-30.6,-77.9,-30.6c-55,4.6,-107,4.6,-157.4,4.6c-53.5,-4.6,50.4,-4.6,-102.4,-4.6Z" 
	id="f1_2"
	transform="scale(0.001,-0.001)" />

	<path d="M433.9,12.2c61.1,0,165,33.6,195.5,172.7c19.9,96.2,19.9,209.3,19.9,322.3c0,132.9,-1.5,242.9,-26,325.4C595.8,921.3,516.4,971.7,433.9,971.7c-62.6,0,-160.4,-32.1,-192.5,-152.8C218.5,734.9,218.5,618.8,218.5,507.2c0,-113,0,-238.3,21.4,-328.4C270.4,53.5,363.6,12.2,433.9,12.2Zm0,-42.7C79.4,-30.5,79.4,377.4,79.4,487.4c0,110,0,527,354.5,527c122.2,0,216.9,-61.1,264.3,-131.3c70.3,-107,90.1,-227.7,90.1,-395.7c0,-110,0,-517.9,-354.4,-517.9Z" 
	id="f2_1"
	transform="scale(0.001,-0.001)" />

	<path d="M171.1,-294.8c-7.6,0,-15.3,6.1,-15.3,16.8c0,4.6,0,7.7,16.8,24.5c50.5,50.4,103.9,142.1,103.9,255c0,21.4,-1.5,22.9,-3,22.9c-1.6,0,-3.1,-1.5,-7.7,-4.5C250.6,6.1,230.7,0,212.4,0c-50.5,0,-81,39.7,-81,81c0,42.8,30.5,80.9,81,80.9c59.5,0,97.7,-59.5,97.7,-160.4c0,-178.6,-122.2,-296.3,-139,-296.3Z" 
	id="f1_1"
	transform="scale(0.001,-0.001)" />

	<path d="M96.3,0c0,42.8,0,45.8,15.2,59.6L479.7,423.2c48.9,55,143.6,160.4,143.6,293.3c0,123.8,-79.4,242.9,-232.2,242.9c-71.8,0,-175.7,-33.6,-223,-142c79.4,0,90.1,-53.5,90.1,-81c0,-55,-44.3,-81,-81,-81c-15.3,0,-80.9,7.7,-80.9,85.6c0,140.5,128.3,273.4,317.7,273.4c195.6,0,357.5,-113,357.5,-297.9c0,-145.1,-105.4,-239.8,-218.4,-330C461.4,314.7,407.9,271.9,247.5,129.9l281.1,0c21.4,0,139,0,151.3,9.1c19.8,15.3,35.1,105.4,39.7,139.1l51.9,0L725.7,0Z" 
	id="f2_2"
	transform="scale(0.001,-0.001)" />

	<path d="M140.6,-381.8c-13.8,0,-30.6,0,-30.6,16.8c0,9.1,6.1,15.2,13.8,16.8C290.3,-337.5,330,-239.8,330,-178.7l0,366.6c0,88.6,55,158.9,180.3,194c-42.8,12.3,-87.1,27.5,-119.2,59.6C342.2,490.4,330,516.4,330,586.7l0,320.8c0,55,0,58.1,-4.6,71.8c-19.8,77.9,-94.7,126.8,-191,132.9c-15.2,1.6,-24.4,1.6,-24.4,16.8c0,16.8,16.8,16.8,30.6,16.8c51.9,0,157.3,-15.2,218.4,-62.6c73.4,-58.1,73.4,-106.9,73.4,-171.1l0,-302.5c0,-55,0,-58.1,4.5,-74.9c16.9,-74.8,90.2,-129.8,191,-135.9c15.3,-1.6,24.5,-1.6,24.5,-16.9c0,-9.1,-6.1,-15.2,-13.8,-16.8C605,363.6,546.9,360.6,493.5,316.3C432.4,265.8,432.4,216.9,432.4,157.4l0,-348.3C430.8,-307,288.8,-381.8,140.6,-381.8Z" 
	id="f0_2"
	transform="scale(0.001,-0.001)" />

	<path d="M67.2,-16.7C50.4,-16.7,50.4,-6,50.4,19.9l0,201.6c0,27.5,0,38.2,19.9,38.2c15.3,0,16.8,-6.1,21.4,-25.9c29,-129.9,84,-217,212.3,-217c119.2,0,172.7,61.1,172.7,139c0,110,-125.3,134.5,-158.9,140.6C207.8,317.8,165,326.9,116.1,366.7C74.9,400.3,50.4,443.1,50.4,496.5c0,85.6,58.1,187.9,244.5,187.9c22.9,0,85.5,0,143.6,-42.7c6.1,4.6,21.4,18.3,25.9,24.4c19.9,18.3,23,18.3,30.6,18.3c16.8,0,16.8,-10.6,16.8,-36.6l0,-154.3c0,-29.1,0,-36.7,-19.9,-36.7c-3,0,-16.8,0,-18.3,13.8c-3,47.3,-10.7,184.8,-178.7,184.8C163.5,655.4,123.8,592.8,123.8,539.3C123.8,450.7,226.1,430.8,311.7,414c64.1,-12.2,123.7,-24.4,174.1,-73.3C504.2,322.4,550,276.5,550,195.6C550,85.6,479.7,-16.7,304,-16.7c-32.1,0,-100.8,1.5,-168,65.6C108.5,19.9,108.5,16.8,105.4,13.8c-29,-29,-30.5,-30.5,-38.2,-30.5Z" 
	id="f3_3"
	transform="scale(0.001,-0.001)" />

	<path d="M356,-16.7c-55,0,-197.1,18.2,-197.1,206.1l0,421.7L29,611.1l0,33.6c149.8,6.1,195.6,169.6,197.1,294.9l38.2,0l0,-281.1l218.5,0l0,-47.4l-218.5,0l0,-424.7c0,-26,0,-165,102.4,-165c56.5,0,102.3,58,102.3,171.1l0,84l38.2,0l0,-87.1C507.2,91.7,464.4,-16.7,356,-16.7Z" 
	id="f3_4"
	transform="scale(0.001,-0.001)" />

	<path d="M319.3,16.8c68.8,0,178.8,52,178.8,197.1l0,152.8C246,357.5,181.8,230.7,181.8,146.7C181.8,70.3,244.4,16.8,319.3,16.8ZM308.6,-16.7C212.4,-16.7,64.2,21.4,64.2,145.1c0,67.3,38.2,146.7,152.7,198.7c96.3,45.8,203.2,50.4,281.2,55l0,56.5c0,136,-87.1,195.5,-162,195.5c-48.9,0,-123.7,-16.8,-165,-70.2C241.4,579,249,528.6,249,510.3C249,470.6,221.5,440,178.8,440c-39.8,0,-70.3,26,-70.3,71.8c0,100.8,105.4,172.6,230.7,172.6c73.3,0,149.7,-24.4,209.3,-84c55,-56.5,55,-116.1,55,-180.3l0,-305.5c0,-7.7,6.1,-76.4,56.5,-76.4c16.8,0,55,9.2,55,97.8l0,85.5l38.2,0l0,-85.5C753.2,12.2,660,-9.1,627.9,-9.1c-71.8,0,-113,64.1,-119.1,125.2C479.7,44.3,409.4,-16.7,308.6,-16.7Z" 
	id="f3_1"
	transform="scale(0.001,-0.001)" />

	<path d="M42.8,0l0,47.4c102.3,0,119.1,0,119.1,68.7l0,409.5c0,74.8,-12.2,85.5,-119.1,85.5l0,47.4l212.3,16.8l0,-168.1c21.4,65.7,76.4,168.1,188,168.1c65.7,0,113,-44.3,113,-93.2c0,-48.9,-38.2,-67.2,-65.7,-67.2c-33.6,0,-65.7,22.9,-65.7,65.7c0,39.7,30.6,58,35.2,59.5c-3.1,1.6,-6.1,1.6,-16.8,1.6c-116.2,0,-180.3,-136,-180.3,-287.3l0,-235.2c0,-55,3,-71.8,116.1,-71.8l32.1,0L349.9,4.6l-175.7,0C102.4,1.5,216.9,0,42.8,0Z" 
	id="f3_2"
	transform="scale(0.001,-0.001)" />


</defs>

<!-- Any embedded fonts defined here -->
<style type="text/css" ><![CDATA[

@font-face {
	font-family: CMMI10_8;
	src: url("fonts/CMMI10_8.woff") format("woff");
}

@font-face {
	font-family: CMR10_a;
	src: url("fonts/CMR10_a.woff") format("woff");
}

@font-face {
	font-family: CMSY10_7;
	src: url("fonts/CMSY10_7.woff") format("woff");
}

@font-face {
	font-family: CMR7_9;
	src: url("fonts/CMR7_9.woff") format("woff");
}

]]></style>

</svg>
