<?xml version="1.0" encoding="utf-8"?>
<!-- Generator: Adobe Illustrator 21.0.0, SVG Export Plug-In . SVG Version: 6.00 Build 0)  -->
<svg version="1.1" id="Layer_1" xmlns="http://www.w3.org/2000/svg" xmlns:xlink="http://www.w3.org/1999/xlink" x="0px" y="0px"
	 viewBox="0 0 778 138" style="enable-background:new 0 0 778 138;" xml:space="preserve">
<style type="text/css">
	.st0{fill:#F1BCA9;}
	.st1{fill:#FFFFFF;}
	.st2{fill:#FFFFFF;stroke:#000000;stroke-miterlimit:10;}
	.st3{fill:#B3FFB3;}
	.st4{fill:none;stroke:#000000;stroke-miterlimit:10;}
	.st5{font-family:'MyriadPro-Regular';}
	.st6{font-size:18px;}
</style>
<g>
	<path class="st0" d="M119,95.5c-16.3,0-29.5-13.2-29.5-29.5c0-13.6,9.8-23.8,18.9-27.5c4.2-1.7,8-2,9.8-2c0.3,0,0.6,0,0.8,0
		c12.4,0.5,29.5,11,29.5,29.5C148.5,82.3,135.3,95.5,119,95.5z"/>
	<path d="M118.2,37L118.2,37c0.3,0,0.6,0,0.7,0c12.2,0.5,29,10.9,29,29c0,16-13,29-29,29S90,82,90,66c0-13.4,9.6-23.4,18.6-27.1
		C112.7,37.2,116.4,37,118.2,37 M118.2,36c-1.7,0-5.6,0.2-10,2C98,42.2,89,53,89,66c0,16.6,13.4,30,30,30s30-13.4,30-30
		c0-18.6-17.4-29.5-30-30C118.8,36,118.6,36,118.2,36L118.2,36z"/>
</g>
<g>
	<path class="st1" d="M319,95.5c-16.3,0-29.5-13.2-29.5-29.5s13.2-29.5,29.5-29.5s29.5,13.2,29.5,29.5S335.3,95.5,319,95.5z"/>
	<path d="M319,37c16,0,29,13,29,29s-13,29-29,29s-29-13-29-29S303,37,319,37 M319,36c-16.6,0-30,13.4-30,30s13.4,30,30,30
		s30-13.4,30-30S335.6,36,319,36L319,36z"/>
</g>
<path class="st2" d="M148.5,65.5"/>
<g>
	<path class="st1" d="M519,95.5c-16.3,0-29.5-13.2-29.5-29.5s13.2-29.5,29.5-29.5s29.5,13.2,29.5,29.5S535.3,95.5,519,95.5z"/>
	<path d="M519,37c16,0,29,13,29,29s-13,29-29,29s-29-13-29-29S503,37,519,37 M519,36c-16.6,0-30,13.4-30,30s13.4,30,30,30
		s30-13.4,30-30S535.6,36,519,36L519,36z"/>
</g>
<g>
	<path class="st3" d="M719,95.5c-16.3,0-29.5-13.2-29.5-29.5s13.2-29.5,29.5-29.5s29.5,13.2,29.5,29.5S735.3,95.5,719,95.5z"/>
	<path d="M719,37c16,0,29,13,29,29s-13,29-29,29s-29-13-29-29S703,37,719,37 M719,36c-16.6,0-30,13.4-30,30s13.4,30,30,30
		s30-13.4,30-30S735.6,36,719,36L719,36z"/>
</g>
<g>
	<g>
		<line class="st4" x1="148.5" y1="65.5" x2="282.5" y2="65.5"/>
		<g>
			<path d="M288.5,65.5c-2.8,1.1-6.4,2.9-8.5,4.8l1.7-4.8l-1.7-4.8C282.1,62.6,285.7,64.4,288.5,65.5z"/>
		</g>
	</g>
</g>
<g>
	<g>
		<line class="st4" x1="348.5" y1="65.5" x2="482.5" y2="65.5"/>
		<g>
			<path d="M488.5,65.5c-2.8,1.1-6.4,2.9-8.5,4.8l1.7-4.8l-1.7-4.8C482.1,62.6,485.7,64.4,488.5,65.5z"/>
		</g>
	</g>
</g>
<g>
	<g>
		<line class="st4" x1="548.5" y1="65.5" x2="682.5" y2="65.5"/>
		<g>
			<path d="M688.5,65.5c-2.8,1.1-6.4,2.9-8.5,4.8l1.7-4.8l-1.7-4.8C682.1,62.6,685.7,64.4,688.5,65.5z"/>
		</g>
	</g>
</g>
<text transform="matrix(1 0 0 1 207 55)" class="st5 st6">a</text>
<text transform="matrix(1 0 0 1 413 55)" class="st5 st6">b</text>
<text transform="matrix(1 0 0 1 610.5 55)" class="st5 st6">c</text>
<path d="M112,36.8"/>
<path class="st2" d="M111.5,36.5"/>
<text transform="matrix(1 0 0 1 108.1821 71.283)" class="st5 st6">Q0</text>
<text transform="matrix(1 0 0 1 308.1821 71.283)" class="st5 st6">Q1</text>
<text transform="matrix(1 0 0 1 508.1821 71.283)" class="st5 st6">Q2</text>
<g>
	<path class="st3" d="M719,89.5c-13,0-23.5-10.5-23.5-23.5S706,42.5,719,42.5S742.5,53,742.5,66S732,89.5,719,89.5z"/>
	<path d="M719,43c12.7,0,23,10.3,23,23s-10.3,23-23,23s-23-10.3-23-23S706.3,43,719,43 M719,42c-13.3,0-24,10.7-24,24s10.7,24,24,24
		s24-10.7,24-24S732.3,42,719,42L719,42z"/>
</g>
<text transform="matrix(1 0 0 1 708.1821 71.283)" class="st5 st6">Q3</text>
<g>
	<g>
		<line class="st4" x1="82.5" y1="65.5" x2="25.5" y2="65.5"/>
		<g>
			<path d="M88.5,65.5c-2.8-1.1-6.4-2.9-8.5-4.8l1.7,4.8L80,70.3C82.1,68.4,85.7,66.6,88.5,65.5z"/>
		</g>
	</g>
</g>
</svg>
