<?xml version="1.0" encoding="UTF-8" standalone="no"?>
<!DOCTYPE svg PUBLIC "-//W3C//DTD SVG 1.1//EN"
"http://www.w3.org/Graphics/SVG/1.1/DTD/svg11.dtd">


<!-- Page 1 -->
<svg x="0" y="0" width="664" height="259" viewBox="0 0 554 259" version="1.1" xmlns="http://www.w3.org/2000/svg" xmlns:xlink="http://www.w3.org/1999/xlink"
style="display: block;margin-left: auto;margin-right: auto;">
<defs>

<style type="text/css"><![CDATA[

.g5_1{
fill: none;
stroke: #FFFFFF;
stroke-width: 1;
stroke-linecap: butt;
stroke-linejoin: miter;
}
.g2_1{
fill: none;
stroke: #000000;
stroke-width: 1;
stroke-linecap: butt;
stroke-linejoin: miter;
}
.g3_1{
fill: none;
stroke: #000000;
stroke-width: 1;
stroke-linecap: round;
stroke-linejoin: round;
}
.g6_1{
fill: #FFB3B3;
stroke: #000000;
stroke-width: 1;
stroke-linecap: butt;
stroke-linejoin: miter;
}
.g4_1{
fill: #B3FFB3;
stroke: #000000;
stroke-width: 3;
stroke-linecap: butt;
stroke-linejoin: miter;
}
.g1_1{
fill: #FFD9B3;
stroke: #000000;
stroke-width: 1;
stroke-linecap: butt;
stroke-linejoin: miter;
}

.s3_1{
font-size: 18.26px;
font-family: CMR12_9;
fill: TRANSPARENT;
}
.s2_1{
font-size: 12.18px;
font-family: CMR8_8;
fill: TRANSPARENT;
}
.s1_1{
font-size: 18.26px;
font-family: CMMI12_7;
fill: TRANSPARENT;
}

]]></style>

</defs>
<path d="M0,0
L0,259
L554,259
L554,0 Z " 
fill="#FFFFFF" stroke="none" />
<path d="M118.5,90.1c0,-12.4,-10,-22.4,-22.4,-22.4c-12.3,0,-22.4,10,-22.4,22.4c0,12.3,10.1,22.3,22.4,22.3c12.4,0,22.4,-10,22.4,-22.3Z" class="g1_1" />
<g fill="#000000" >
<use xlink:href="#f0_1" transform="matrix(12,0,0,12,88.5,92.2)" />
<use xlink:href="#f1_1" transform="matrix(8,0,0,8,96.5,95)" />
</g>
<text 
x="88" 
y="92" 
dx="0" 
class="s1_1"
>q</text>

<text 
x="96" 
y="94" 
dx="0" 
class="s2_1"
>0</text>

<path d="M49.5,90.5l22,0" class="g2_1" />
<path d="M69.4,87.6c0.1,0.9,1.8,2.3,2.3,2.5c-0.5,0.1,-2.2,1.5,-2.3,2.4" class="g3_1" />
<g fill="#000000" >
<use xlink:href="#f2_6" transform="matrix(12,0,0,12,6.7,95.7)" />
<use xlink:href="#f2_7" transform="matrix(12,0,0,12,13.8,95.7)" />
<use xlink:href="#f2_4" transform="matrix(12,0,0,12,20.7,95.7)" />
<use xlink:href="#f2_5" transform="matrix(12,0,0,12,29.7,95.7)" />
<use xlink:href="#f2_7" transform="matrix(12,0,0,12,36.6,95.7)" />
</g>
<text 
x="6" 
y="95" 
dx="0,0,0,0,0" 
class="s3_1"
>start</text>

<path d="M248.4,90.1c0,-12.4,-10,-22.4,-22.4,-22.4c-12.3,0,-22.3,10,-22.3,22.4c0,12.3,10,22.3,22.3,22.3c12.4,0,22.4,-10,22.4,-22.3Z" class="g2_1" />
<g fill="#000000" >
<use xlink:href="#f0_1" transform="matrix(12,0,0,12,218.4,92.2)" />
<use xlink:href="#f1_2" transform="matrix(8,0,0,8,226.4,95)" />
</g>
<text 
x="218" 
y="92" 
dx="0" 
class="s1_1"
>q</text>

<text 
x="226" 
y="94" 
dx="0" 
class="s2_1"
>1</text>

<path d="M378.3,90.1c0,-12.4,-10,-22.4,-22.4,-22.4c-12.3,0,-22.3,10,-22.3,22.4c0,12.3,10,22.3,22.3,22.3c12.4,0,22.4,-10,22.4,-22.3Z" class="g2_1" />
<g fill="#000000" >
<use xlink:href="#f0_1" transform="matrix(12,0,0,12,348.4,92.2)" />
<use xlink:href="#f1_3" transform="matrix(8,0,0,8,356.3,95)" />
</g>
<text 
x="348" 
y="92" 
dx="0" 
class="s1_1"
>q</text>

<text 
x="356" 
y="94" 
dx="0" 
class="s2_1"
>2</text>

<path d="M508.2,90.1c0,-12.4,-10,-22.4,-22.3,-22.4c-12.4,0,-22.4,10,-22.4,22.4c0,12.3,10,22.3,22.4,22.3c12.3,0,22.3,-10,22.3,-22.3Z" class="g4_1" />
<path d="M508.2,90.1c0,-12.4,-10,-22.4,-22.3,-22.4c-12.4,0,-22.4,10,-22.4,22.4c0,12.3,10,22.3,22.4,22.3c12.3,0,22.3,-10,22.3,-22.3Z" class="g5_1" />
<g fill="#000000" >
<use xlink:href="#f0_1" transform="matrix(12,0,0,12,478.3,92.2)" />
<use xlink:href="#f1_4" transform="matrix(8,0,0,8,486.2,95)" />
</g>
<text 
x="478" 
y="92" 
dx="0" 
class="s1_1"
>q</text>

<text 
x="486" 
y="94" 
dx="0" 
class="s2_1"
>3</text>

<path d="M313.3,198.3C313.3,186,303.3,176,291,176c-12.4,0,-22.4,10,-22.4,22.3c0,12.4,10,22.4,22.4,22.4c12.3,0,22.3,-10,22.3,-22.4Z" class="g6_1" />
<g fill="#000000" >
<use xlink:href="#f0_1" transform="matrix(12,0,0,12,283.4,200.5)" />
<use xlink:href="#f1_5" transform="matrix(8,0,0,8,291.3,203.2)" />
</g>
<text 
x="283" 
y="200" 
dx="0" 
class="s1_1"
>q</text>

<text 
x="291" 
y="203" 
dx="0" 
class="s2_1"
>4</text>

<path d="M90.2,68.1C80.7,32.7,111.5,32.7,102.6,66" class="g2_1" />
<path d="M105.4,64.8c-0.9,0,-2.7,1.2,-3,1.6c0,-0.5,-0.9,-2.4,-1.7,-2.8" class="g3_1" />
<path d="M93.5,34.5l6,0" class="g2_1" />
<path d="M118.5,90.5l83,0" class="g2_1" />
<path d="M199.3,87.6c0.2,0.9,1.8,2.3,2.3,2.5c-0.5,0.1,-2.1,1.5,-2.3,2.4" class="g3_1" />
<g fill="#000000" >
<use xlink:href="#f2_3" transform="matrix(12,0,0,12,158.6,83.8)" />
</g>
<text 
x="158" 
y="83" 
dx="0" 
class="s3_1"
>:</text>

<path d="M107.8,109.6c36.9,61.4,88.9,90.3,158.3,89.1" class="g2_1" />
<path d="M264.2,196.3c0.2,0.9,1.9,2.3,2.4,2.4c-0.5,0.2,-2.1,1.6,-2.3,2.5" class="g3_1" />
<path d="M248.5,90.5l83,0" class="g2_1" />
<path d="M329.2,87.6c0.2,0.9,1.9,2.3,2.3,2.5c-0.4,0.1,-2.1,1.5,-2.3,2.4" class="g3_1" />
<g fill="#000000" >
<use xlink:href="#f2_2" transform="matrix(12,0,0,12,284,79.2)" />
<use xlink:href="#f2_1" transform="matrix(12,0,0,12,291,79.2)" />
</g>
<text 
x="284" 
y="79" 
dx="0,0" 
class="s3_1"
>)(</text>

<path d="M226.4,112.7c0.6,34,15,58.1,42.8,73.5" class="g2_1" />
<path d="M268.8,183.2c-0.3,0.9,0.5,2.9,0.8,3.2c-0.5,0,-2.6,0.3,-3.2,1.1" class="g3_1" />
<path d="M378.5,90.5l82,0" class="g2_1" />
<path d="M458.7,87.6c0.2,0.9,1.8,2.3,2.3,2.5c-0.5,0.1,-2.1,1.5,-2.3,2.4" class="g3_1" />
<path d="M418.5,83.5l5,0" class="g2_1" />
<path d="M355.6,112.7c-0.6,34,-15.1,58.1,-42.8,73.5" class="g2_1" />
<path d="M315.6,187.5c-0.6,-0.8,-2.7,-1.1,-3.2,-1.1c0.3,-0.3,1.1,-2.3,0.8,-3.2" class="g3_1" />
<path d="M508.2,84.1c36.2,-9.7,36.2,21.6,2.2,12.5" class="g2_1" />
<path d="M511.5,99.5c0.1,-1,-1.1,-2.7,-1.5,-3c0.4,0,2.4,-0.9,2.8,-1.8" class="g3_1" />
<path d="M542.5,90.5l6,0" class="g2_1" />
<path d="M470.9,72.3C413.1,3.6,298.3,3.7,242.1,70.9" class="g2_1" />
<path d="M245.1,71.1c-0.8,-0.5,-2.9,-0.1,-3.3,0.2c0.2,-0.5,0.2,-2.7,-0.4,-3.4" class="g3_1" />
<g fill="#000000" >
<use xlink:href="#f2_3" transform="matrix(12,0,0,12,353.2,14.6)" />
</g>
<text 
x="353" 
y="14" 
dx="0" 
class="s3_1"
>:</text>

<path d="M473.9,110c-36.8,61.2,-88.8,90,-158,88.7" class="g2_1" />
<path d="M317.7,201.2c-0.2,-0.9,-1.8,-2.3,-2.3,-2.5c0.5,-0.1,2.2,-1.4,2.3,-2.4" class="g3_1" />
<path d="M296.9,220.3c9.5,35.4,-21.3,35.4,-12.4,2.1" class="g2_1" />
<path d="M281.7,223.5c0.9,0.1,2.7,-1.1,3,-1.5c0,0.5,0.9,2.4,1.7,2.8" class="g3_1" />

<defs>
	<path d="M256.7,15.3c71.8,0,139,65.7,172.6,108.5c21.4,29,21.4,32,29,58l74.9,299.5c1.5,3,6.1,22.9,6.1,24.4c0,12.2,-19.9,137.5,-120.7,137.5c-59.6,0,-131.4,-55,-183.3,-161.9C206.3,417.1,158.9,246,158.9,161.9C158.9,71.8,194,15.3,256.7,15.3ZM241.4,-296.3c-10.7,0,-19.9,4.6,-19.9,15.3c0,29,15.3,29,32.1,29c71.8,1.5,94.7,1.5,108.5,47.4l13.7,55l58.1,229L432.4,81C400.3,45.8,333.1,-15.2,252.1,-15.2C148.2,-15.2,59.6,73.3,59.6,224.6c0,226.1,186.4,449.2,359,449.2c65.7,0,113.1,-41.3,140.6,-110c29,53.4,88.6,108.4,100.8,108.4c7.6,0,13.8,-6.1,13.8,-13.7L461.4,-200c-4.6,-19.9,-6.1,-21.4,-6.1,-29.1c0,-12.2,4.6,-22.9,76.4,-22.9c22.9,0,35.1,0,35.1,-15.3c0,-29,-18.3,-29,-27.5,-29c-22.9,0,-48.9,3.1,-71.8,3.1l-155.8,0c-21.4,0,-48.9,-3.1,-70.3,-3.1Z" 
	id="f0_1"
	transform="scale(0.001,-0.001)" />

	<path d="M404.9,10.7c50.4,0,155.8,21.4,187.9,181.8c18.3,85.6,18.3,223.1,18.3,313.2c0,103.9,0,218.5,-18.3,302.5c-30.6,139,-136,165,-187.9,165c-38.2,0,-157.4,-15.3,-189.5,-171.1c-16.8,-84,-16.8,-191,-16.8,-296.4c0,-79.4,0,-223.1,16.8,-310.1C247.5,35.1,352.9,10.7,404.9,10.7Zm0,-42.7c-81,0,-194.1,29,-264.3,142c-73.4,122.2,-78,276.5,-78,377.4c0,79.4,3.1,230.7,58.1,342.2c21.4,42.8,91.7,186.4,284.2,186.4c84,0,207.7,-33.6,275,-168.1c50.4,-97.8,67.2,-197.1,67.2,-360.5c0,-99.3,-4.6,-235.3,-61.1,-345.3C609.6,-9.1,478.2,-32,404.9,-32Z" 
	id="f1_1"
	transform="scale(0.001,-0.001)" />

	<path d="M65.7,-15.2c-15.3,0,-15.3,7.7,-15.3,35.1l0,207.7c0,27.5,0,35.2,16.8,35.2c4.6,0,10.7,0,13.8,-6.1c1.5,-1.6,1.5,-3.1,7.6,-30.6C122.2,73.3,195.6,15.3,296.4,15.3c134.4,0,172.6,73.3,172.6,139c0,42.8,-19.8,76.4,-47.3,99.3c-38.2,30.6,-58.1,35.2,-142.1,52C209.3,319.3,157.4,330,108.5,372.8C50.4,426.3,50.4,479.7,50.4,496.5c0,84.1,55,184.9,239.9,184.9c48.9,0,96.2,-9.2,143.6,-47.4c10.7,13.8,39.7,47.4,51.9,47.4c15.3,0,15.3,-7.6,15.3,-35.1l0,-158.9c0,-27.5,0,-35.2,-16.8,-35.2c-4.6,0,-15.3,0,-16.8,12.2c-3.1,47.4,-12.2,189.5,-178.7,189.5C151.3,653.9,119.2,583.6,119.2,536.3C119.2,444.6,230.7,423.2,276.5,414C377.4,395.7,418.6,386.5,473.6,339.2C487.4,325.4,537.8,276.5,537.8,194C537.8,73.3,458.3,-15.2,297.9,-15.2c-26,0,-108.5,0,-166.5,71.7C108.5,32.1,108.5,29,100.8,18.3C74.9,-13.7,73.3,-15.2,65.7,-15.2Z" 
	id="f2_6"
	transform="scale(0.001,-0.001)" />

	<path d="M351.4,-15.2c-81,0,-194,35.1,-194,204.6l0,424.8l-129.9,0l0,30.5c139,4.6,194,151.3,195.6,294.9l33.6,0l0,-281.1l215.4,0l0,-44.3l-215.4,0l0,-427.8c0,-26,0,-168.1,103.9,-168.1c59.5,0,103.8,64.2,103.8,174.2l0,84l33.7,0l0,-87.1c0,-110,-50.5,-204.6,-146.7,-204.6Z" 
	id="f2_7"
	transform="scale(0.001,-0.001)" />

	<path d="M313.2,15.3c65.7,0,177.2,50.4,177.2,200.1l0,151.3C435.4,363.6,175.7,345.3,175.7,143.6C175.7,70.3,238.3,15.3,313.2,15.3ZM301,-15.2C207.8,-15.2,67.2,22.9,67.2,143.6c0,117.7,116.1,246,423.2,250.6l0,61.1c0,137.5,-90.1,195.5,-160.4,195.5c-61.1,0,-134.4,-27.5,-169.6,-91.6c22.9,0,77.9,0,77.9,-62.7c0,-36.6,-25.9,-62.6,-62.6,-62.6c-35.1,0,-64.2,21.4,-64.2,65.7c0,99.3,96.3,181.8,221.6,181.8c67.2,0,135.9,-21.4,189.4,-70.3c67.2,-59.6,67.2,-120.7,67.2,-203.2l0,-267.3c0,-23,0,-103.9,58.1,-103.9c21.4,0,58,12.2,58,99.3l0,85.5l33.6,0l0,-85.5C739.4,13.8,650.8,-7.5,618.8,-7.5c-65.7,0,-113.1,54.9,-119.2,126.7C470.6,45.8,401.8,-15.2,301,-15.2Z" 
	id="f2_4"
	transform="scale(0.001,-0.001)" />

	<path d="M42.8,0l0,44.3c99.3,0,116.1,0,116.1,68.8l0,414c0,74.8,-12.2,85.5,-116.1,85.5l0,44.3l204.7,16.9l0,-169.6l1.5,0c9.2,29,53.5,169.6,183.4,169.6c65.7,0,106.9,-42.8,106.9,-88.7C539.3,543.9,508.8,524,478.2,524c-24.4,0,-59.6,16.8,-59.6,61.1c0,41.3,24.5,50.5,36.7,56.6c-6.1,1.5,-9.2,1.5,-21.4,1.5C316.3,643.2,255.1,504.2,255.1,356l0,-239.9c0,-55,3.1,-71.8,114.6,-71.8l30.6,0L365.1,3.1l-195.5,0C85.6,3.1,215.4,0,42.8,0Z" 
	id="f2_5"
	transform="scale(0.001,-0.001)" />

	<path d="M155.8,0l0,50.4l53.5,0C354.4,50.4,359,68.8,359,125.3L359,909C270.4,867.8,187.9,867.8,146.7,867.8l0,50.4c145.1,0,226.1,36.7,288.7,97.8c41.3,0,44.3,-1.6,44.3,-42.8l0,-847.9c0,-56.5,4.6,-74.9,149.7,-74.9l53.5,0L620.3,4.6l-270.4,0C218.5,4.6,418.6,0,155.8,0Z" 
	id="f1_2"
	transform="scale(0.001,-0.001)" />

	<path d="M81,0c0,38.2,0,41.3,18.3,58.1L291.8,256.7C472.1,441.5,583.6,557.6,583.6,716.5c0,128.4,-73.3,249.1,-215.4,249.1C293.3,965.6,191,927.4,146.7,815.8c18.3,0,94.7,0,94.7,-79.4c0,-58.1,-47.4,-81,-79.5,-81C140.6,655.4,81,666.1,81,741c0,135.9,120.7,275,304,275c191,0,343.8,-117.7,343.8,-299.5c0,-139,-90.2,-223,-184.9,-310.1C519.4,385,455.3,334.6,430.8,311.7L224.6,125.3l271.9,0c24.5,0,140.6,0,149.8,12.2c18.3,29,30.5,105.4,35.1,136l47.4,0L684.4,0Z" 
	id="f1_3"
	transform="scale(0.001,-0.001)" />

	<path d="M397.2,-32c-174.1,0,-330,94.6,-330,239.8c0,61.1,42.8,87.1,84.1,87.1c48.8,0,84,-35.2,84,-84.1c0,-50.4,-38.2,-85.5,-93.2,-85.5C195.6,44.3,310.1,13.8,394.2,13.8c80.9,0,189.4,56.5,189.4,247.5c0,160.4,-76.4,249,-197.1,249l-76.4,0c-25.9,0,-39.7,0,-39.7,21.4c0,19.8,12.2,21.4,41.3,22.9c93.2,6.1,128.3,9.2,174.1,56.5c21.4,24.5,65.7,88.6,65.7,195.6C551.5,964,435.4,976.3,395.7,976.3c-27.5,0,-145.1,-4.6,-209.3,-88.7c33.6,-1.5,82.5,-22.9,82.5,-79.4c0,-44.3,-30.6,-77.9,-77.9,-77.9c-39.7,0,-77.9,24.4,-77.9,81c0,116.1,123.7,204.7,287.2,204.7c158.9,0,296.4,-87.1,296.4,-209.3C696.7,684.4,606.5,580.6,485.8,537.8C641.7,504.2,742.5,388.1,742.5,261.3C742.5,108.5,600.4,-32,397.2,-32Z" 
	id="f1_4"
	transform="scale(0.001,-0.001)" />

	<path d="M487.4,301l0,563.7L99.3,301ZM319.3,0l0,50.4l35.1,0c117.7,0,122.3,16.8,122.3,73.4l0,126.8l-430.9,0l0,50.4l487.4,707.3c15.3,21.4,16.8,23,36.7,23c32,0,32,-12.3,32,-42.8l0,-687.5l162,0l0,-50.4l-162,0l0,-126.8c0,-56.6,4.6,-73.4,122.3,-73.4l35.1,0L629.4,4.6l-177.2,0C449.2,4.6,539.3,0,319.3,0Z" 
	id="f1_5"
	transform="scale(0.001,-0.001)" />

	<path d="M206.3,0C171.1,0,132.9,29,132.9,74.9c0,38.2,30.6,73.3,74.9,73.3c38.2,0,73.3,-32.1,73.3,-73.3C281.1,32.1,247.5,0,206.3,0Zm0,510.3c-35.2,0,-73.4,29,-73.4,74.8c0,38.2,30.6,73.4,74.9,73.4c38.2,0,73.3,-32.1,73.3,-73.4c0,-42.7,-33.6,-74.8,-74.8,-74.8Z" 
	id="f2_3"
	transform="scale(0.001,-0.001)" />

	<path d="M97.8,-383.4c-6.1,0,-13.8,3.1,-13.8,12.2c0,4.6,0,7.7,15.3,21.4c177.2,180.3,249,435.4,249,731.7C348.3,693.6,262.8,945.7,110,1100c-26,26,-26,29,-26,33.6c0,9.2,7.7,12.2,13.8,12.2c16.8,0,142.1,-99.3,232.2,-282.6C415.6,686,430.8,496.5,430.8,380.4c0,-183.3,-35.1,-348.3,-113,-504.1C242.9,-273.4,117.6,-383.4,97.8,-383.4Z" 
	id="f2_2"
	transform="scale(0.001,-0.001)" />

	<path d="M482.8,-383.4c-16.8,0,-142.1,99.3,-232.2,282.7C171.1,62.6,149.7,244.4,149.7,380.4c0,187.9,35.2,351.4,113.1,505.7c74.8,149.7,200.1,259.7,220,259.7c6.1,0,13.7,-3,13.7,-12.2c0,-4.6,0,-7.6,-15.2,-21.4C304,931.9,232.2,676.8,232.2,380.4c0,-311.6,85.6,-563.6,238.4,-717.9c25.9,-26,25.9,-29.1,25.9,-33.7c0,-9.1,-7.6,-12.2,-13.7,-12.2Z" 
	id="f2_1"
	transform="scale(0.001,-0.001)" />


</defs>

<!-- Any embedded fonts defined here -->
<style type="text/css" ><![CDATA[

@font-face {
	font-family: CMMI12_7;
	src: url("fonts/CMMI12_7.woff") format("woff");
}

@font-face {
	font-family: CMR12_9;
	src: url("fonts/CMR12_9.woff") format("woff");
}

@font-face {
	font-family: CMR8_8;
	src: url("fonts/CMR8_8.woff") format("woff");
}

]]></style>

</svg>
