<svg id="Layer_1" data-name="Layer 1" xmlns="http://www.w3.org/2000/svg" viewBox="0 0 787.9 337.05"><defs><style>.cls-1{fill:#f1bca9;}.cls-2,.cls-3{fill:#fff;}.cls-3,.cls-5{stroke:#000;stroke-miterlimit:10;}.cls-4{fill:#b3ffb3;}.cls-5{fill:none;}.cls-6{fill:#ffb3b3;}.cls-7{font-size:18px;font-family:MyriadPro-Regular, Myriad Pro;}</style></defs><title>automata</title><path class="cls-1" d="M115,166.5A29.53,29.53,0,0,1,85.5,137c0-13.62,9.78-23.82,18.87-27.53a26.6,26.6,0,0,1,9.83-2l.77,0c12.38.51,29.52,11,29.52,29.5A29.53,29.53,0,0,1,115,166.5Z" transform="translate(-21.5 -15.93)"/><path d="M114.21,108h0l.75,0c12.18.5,29,10.86,29,29a29,29,0,0,1-58,0c0-13.39,9.62-23.42,18.56-27.07a26.09,26.09,0,0,1,9.65-2m0-1a27.08,27.08,0,0,0-10,2C94,113.15,85,124,85,137a30,30,0,0,0,60,0c0-18.63-17.37-29.48-30-30l-.79,0Z" transform="translate(-21.5 -15.93)"/><path class="cls-2" d="M315,166.5A29.5,29.5,0,1,1,344.5,137,29.53,29.53,0,0,1,315,166.5Z" transform="translate(-21.5 -15.93)"/><path d="M315,108a29,29,0,1,1-29,29,29,29,0,0,1,29-29m0-1a30,30,0,1,0,30,30,30,30,0,0,0-30-30Z" transform="translate(-21.5 -15.93)"/><path class="cls-3" d="M144.5,136.5" transform="translate(-21.5 -15.93)"/><path class="cls-4" d="M515,166.5A29.5,29.5,0,1,1,544.5,137,29.53,29.53,0,0,1,515,166.5Z" transform="translate(-21.5 -15.93)"/><path d="M515,108a29,29,0,1,1-29,29,29,29,0,0,1,29-29m0-1a30,30,0,1,0,30,30,30,30,0,0,0-30-30Z" transform="translate(-21.5 -15.93)"/><path class="cls-4" d="M715,166.5A29.5,29.5,0,1,1,744.5,137,29.53,29.53,0,0,1,715,166.5Z" transform="translate(-21.5 -15.93)"/><path d="M715,108a29,29,0,1,1-29,29,29,29,0,0,1,29-29m0-1a30,30,0,1,0,30,30,30,30,0,0,0-30-30Z" transform="translate(-21.5 -15.93)"/><line class="cls-5" x1="123" y1="120.57" x2="256.96" y2="120.57"/><path d="M284.5,136.5a30.22,30.22,0,0,0-8.55,4.76l1.72-4.76L276,131.75A30.2,30.2,0,0,0,284.5,136.5Z" transform="translate(-21.5 -15.93)"/><line class="cls-5" x1="323" y1="120.57" x2="456.96" y2="120.57"/><path d="M484.5,136.5a30.22,30.22,0,0,0-8.55,4.76l1.72-4.76L476,131.75A30.2,30.2,0,0,0,484.5,136.5Z" transform="translate(-21.5 -15.93)"/><line class="cls-5" x1="523" y1="120.57" x2="656.96" y2="120.57"/><path d="M684.5,136.5a30.22,30.22,0,0,0-8.55,4.76l1.72-4.76L676,131.75A30.2,30.2,0,0,0,684.5,136.5Z" transform="translate(-21.5 -15.93)"/><path class="cls-6" d="M414,290.5A29.5,29.5,0,1,1,443.5,261,29.53,29.53,0,0,1,414,290.5Z" transform="translate(-21.5 -15.93)"/><path d="M414,232a29,29,0,1,1-29,29,29,29,0,0,1,29-29m0-1a30,30,0,1,0,30,30,30,30,0,0,0-30-30Z" transform="translate(-21.5 -15.93)"/><path class="cls-5" d="M114.5,166.5c0,51.25,117.07,92.86,263,94" transform="translate(-21.5 -15.93)"/><path d="M383.5,260.5a30.22,30.22,0,0,0-8.63,4.6l1.8-4.72L375,255.6A30.19,30.19,0,0,0,383.5,260.5Z" transform="translate(-21.5 -15.93)"/><path class="cls-5" d="M720.5,166.5c0,51.27-120.65,92.89-271,94" transform="translate(-21.5 -15.93)"/><path d="M443.5,260.5a30.22,30.22,0,0,0,8.46-4.9l-1.64,4.78,1.8,4.72A30.2,30.2,0,0,0,443.5,260.5Z" transform="translate(-21.5 -15.93)"/><path class="cls-4" d="M715,160.5A23.5,23.5,0,1,1,738.5,137,23.53,23.53,0,0,1,715,160.5Z" transform="translate(-21.5 -15.93)"/><path d="M715,114a23,23,0,1,1-23,23,23,23,0,0,1,23-23m0-1a24,24,0,1,0,24,24,24,24,0,0,0-24-24Z" transform="translate(-21.5 -15.93)"/><path class="cls-4" d="M515,160.5A23.5,23.5,0,1,1,538.5,137,23.53,23.53,0,0,1,515,160.5Z" transform="translate(-21.5 -15.93)"/><path d="M515,114a23,23,0,1,1-23,23,23,23,0,0,1,23-23m0-1a24,24,0,1,0,24,24,24,24,0,0,0-24-24Z" transform="translate(-21.5 -15.93)"/><text class="cls-7" transform="translate(181.5 110.07)">:</text><text class="cls-7" transform="translate(387.5 110.07)">) (</text><path class="cls-5" d="M319.8,103.35C350.78,80.67,527.13-35.49,715,107" transform="translate(-21.5 -15.93)"/><path d="M315,107a30.22,30.22,0,0,1,9.69-1.32l-4.23-2.78L319,98.07A30.2,30.2,0,0,1,315,107Z" transform="translate(-21.5 -15.93)"/><text class="cls-7" transform="translate(585 110.07)">_</text><text class="cls-7" transform="translate(764 92.07)">_</text><path d="M108,107.84" transform="translate(-21.5 -15.93)"/><path class="cls-3" d="M107.5,107.5" transform="translate(-21.5 -15.93)"/><path class="cls-5" d="M107.5,107.5s-33-41-15-56,31,0,31,0S141.78,67,118,101.61" transform="translate(-21.5 -15.93)"/><path d="M114.5,106.5a30.22,30.22,0,0,0,1.07-9.72l2.88,4.15,4.87,1.35A30.2,30.2,0,0,0,114.5,106.5Z" transform="translate(-21.5 -15.93)"/><path class="cls-5" d="M746.23,135s41-32.83,56-14.92,0,30.84,0,30.84-15.54,18.18-50.11-5.42" transform="translate(-21.5 -15.93)"/><path d="M747.23,142a30.22,30.22,0,0,0,9.73,1l-4.15,2.89-1.34,4.88A30.2,30.2,0,0,0,747.23,142Z" transform="translate(-21.5 -15.93)"/><text class="cls-7" transform="translate(218.5 219.07)">) (</text><path class="cls-5" d="M315,167s10.48,63.29,69.62,74.34" transform="translate(-21.5 -15.93)"/><path d="M390.59,242.25a30.22,30.22,0,0,0-9.19,3.36l2.45-4.43-1-5A30.2,30.2,0,0,0,390.59,242.25Z" transform="translate(-21.5 -15.93)"/><path class="cls-5" d="M515.13,167.55s-11.39,63.13-70.69,73.32" transform="translate(-21.5 -15.93)"/><path d="M438.46,241.7a30.22,30.22,0,0,0,7.78-5.93l-1,5,2.38,4.46A30.2,30.2,0,0,0,438.46,241.7Z" transform="translate(-21.5 -15.93)"/><text class="cls-7" transform="translate(323.5 189.07)">_ :</text><path class="cls-5" d="M418.92,290s29.89,43.19,11,56.91-30.77-2.15-30.77-2.15S382.07,328,408,295.14" transform="translate(-21.5 -15.93)"/><path d="M411.9,290.5a30.22,30.22,0,0,0-1.72,9.63l-2.6-4.34-4.77-1.67A30.2,30.2,0,0,0,411.9,290.5Z" transform="translate(-21.5 -15.93)"/><text class="cls-7" transform="translate(82.68 126.35)">Q0</text><text class="cls-7" transform="translate(282.68 126.35)">Q1</text><text class="cls-7" transform="translate(482.68 126.35)">Q2</text><text class="cls-7" transform="translate(682.68 126.35)">Q3</text><text class="cls-7" transform="translate(381.68 250.55)">Q4</text><text class="cls-7" transform="translate(422.5 311.07)">_ : ) (</text><text class="cls-7" transform="translate(84 21.07)">_</text><text class="cls-7" transform="translate(444.5 189.07)"><tspan xml:space="preserve"> : ) (</tspan></text><text class="cls-7" transform="translate(489.64 15.07)">:</text><text class="cls-7" transform="translate(560.5 219.07)">) (</text><line class="cls-5" x1="56.96" y1="120.57" y2="120.57"/><path d="M84.5,136.5A30.22,30.22,0,0,1,76,131.74l1.72,4.76L76,141.25A30.2,30.2,0,0,1,84.5,136.5Z" transform="translate(-21.5 -15.93)"/></svg>