<svg id="Layer_1" data-name="Layer 1" xmlns="http://www.w3.org/2000/svg" viewBox="0 0 787.9 337.05"><defs><style>.cls-1{fill:#f1bca9;}.cls-2,.cls-3{fill:#fff;}.cls-3,.cls-5{stroke:#000;stroke-miterlimit:10;}.cls-4{fill:#b3ffb3;}.cls-5{fill:none;}.cls-6{fill:#ffb3b3;}.cls-7{font-size:18px;font-family:MyriadPro-Regular, Myriad Pro;}</style></defs><title>automata_3</title><path class="cls-1" d="M119.5,162.5A29.53,29.53,0,0,1,90,133c0-13.62,9.78-23.82,18.87-27.53a26.6,26.6,0,0,1,9.83-2l.77,0c12.38.51,29.52,11,29.52,29.5A29.53,29.53,0,0,1,119.5,162.5Z" transform="translate(-26 -11.93)"/><path d="M118.71,104h0l.75,0c12.18.5,29,10.86,29,29a29,29,0,0,1-58,0c0-13.39,9.62-23.42,18.56-27.07a26.09,26.09,0,0,1,9.65-2m0-1a27.07,27.07,0,0,0-10,2c-10.16,4.14-19.19,15-19.19,28a30,30,0,0,0,60,0c0-18.63-17.37-29.48-30-30l-.79,0Z" transform="translate(-26 -11.93)"/><path class="cls-2" d="M319.5,162.5A29.5,29.5,0,1,1,349,133,29.53,29.53,0,0,1,319.5,162.5Z" transform="translate(-26 -11.93)"/><path d="M319.5,104a29,29,0,1,1-29,29,29,29,0,0,1,29-29m0-1a30,30,0,1,0,30,30,30,30,0,0,0-30-30Z" transform="translate(-26 -11.93)"/><path class="cls-3" d="M149,132.5" transform="translate(-26 -11.93)"/><path class="cls-4" d="M519.5,162.5A29.5,29.5,0,1,1,549,133,29.53,29.53,0,0,1,519.5,162.5Z" transform="translate(-26 -11.93)"/><path d="M519.5,104a29,29,0,1,1-29,29,29,29,0,0,1,29-29m0-1a30,30,0,1,0,30,30,30,30,0,0,0-30-30Z" transform="translate(-26 -11.93)"/><path class="cls-4" d="M719.5,162.5A29.5,29.5,0,1,1,749,133,29.53,29.53,0,0,1,719.5,162.5Z" transform="translate(-26 -11.93)"/><path d="M719.5,104a29,29,0,1,1-29,29,29,29,0,0,1,29-29m0-1a30,30,0,1,0,30,30,30,30,0,0,0-30-30Z" transform="translate(-26 -11.93)"/><line class="cls-5" x1="123" y1="120.57" x2="256.96" y2="120.57"/><path d="M289,132.5a30.22,30.22,0,0,0-8.55,4.76l1.72-4.76-1.72-4.75A30.2,30.2,0,0,0,289,132.5Z" transform="translate(-26 -11.93)"/><line class="cls-5" x1="323" y1="120.57" x2="456.96" y2="120.57"/><path d="M489,132.5a30.22,30.22,0,0,0-8.55,4.76l1.72-4.76-1.72-4.75A30.2,30.2,0,0,0,489,132.5Z" transform="translate(-26 -11.93)"/><line class="cls-5" x1="523" y1="120.57" x2="656.96" y2="120.57"/><path d="M689,132.5a30.22,30.22,0,0,0-8.55,4.76l1.72-4.76-1.72-4.75A30.2,30.2,0,0,0,689,132.5Z" transform="translate(-26 -11.93)"/><path class="cls-6" d="M418.5,286.5A29.5,29.5,0,1,1,448,257,29.53,29.53,0,0,1,418.5,286.5Z" transform="translate(-26 -11.93)"/><path d="M418.5,228a29,29,0,1,1-29,29,29,29,0,0,1,29-29m0-1a30,30,0,1,0,30,30,30,30,0,0,0-30-30Z" transform="translate(-26 -11.93)"/><path class="cls-5" d="M119,162.5c0,51.25,117.07,92.86,263,94" transform="translate(-26 -11.93)"/><path d="M388,256.5a30.22,30.22,0,0,0-8.63,4.6l1.8-4.72-1.64-4.78A30.19,30.19,0,0,0,388,256.5Z" transform="translate(-26 -11.93)"/><path class="cls-5" d="M725,162.5c0,51.27-120.65,92.89-271,94" transform="translate(-26 -11.93)"/><path d="M448,256.5a30.22,30.22,0,0,0,8.46-4.9l-1.64,4.78,1.8,4.72A30.2,30.2,0,0,0,448,256.5Z" transform="translate(-26 -11.93)"/><path class="cls-4" d="M719.5,156.5A23.5,23.5,0,1,1,743,133,23.53,23.53,0,0,1,719.5,156.5Z" transform="translate(-26 -11.93)"/><path d="M719.5,110a23,23,0,1,1-23,23,23,23,0,0,1,23-23m0-1a24,24,0,1,0,24,24,24,24,0,0,0-24-24Z" transform="translate(-26 -11.93)"/><path class="cls-4" d="M519.5,156.5A23.5,23.5,0,1,1,543,133,23.53,23.53,0,0,1,519.5,156.5Z" transform="translate(-26 -11.93)"/><path d="M519.5,110a23,23,0,1,1-23,23,23,23,0,0,1,23-23m0-1a24,24,0,1,0,24,24,24,24,0,0,0-24-24Z" transform="translate(-26 -11.93)"/><text class="cls-7" transform="translate(181.5 110.07)">:</text><text class="cls-7" transform="translate(387.5 110.07)">) (</text><path class="cls-5" d="M324.3,99.35c31-22.68,207.32-138.84,395.2,3.65" transform="translate(-26 -11.93)"/><path d="M319.5,103a30.22,30.22,0,0,1,9.69-1.32L325,98.91l-1.47-4.84A30.2,30.2,0,0,1,319.5,103Z" transform="translate(-26 -11.93)"/><text class="cls-7" transform="translate(585 110.07)">_</text><text class="cls-7" transform="translate(764 92.07)">_</text><path d="M112.46,103.84" transform="translate(-26 -11.93)"/><path class="cls-3" d="M112,103.5" transform="translate(-26 -11.93)"/><path class="cls-5" d="M112,103.5s-33-41-15-56,31,0,31,0S146.28,63,122.54,97.61" transform="translate(-26 -11.93)"/><path d="M119,102.5a30.22,30.22,0,0,0,1.07-9.72l2.88,4.15,4.87,1.35A30.2,30.2,0,0,0,119,102.5Z" transform="translate(-26 -11.93)"/><path class="cls-5" d="M750.73,131s41-32.83,56-14.92,0,30.84,0,30.84-15.54,18.18-50.11-5.42" transform="translate(-26 -11.93)"/><path d="M751.73,138a30.22,30.22,0,0,0,9.73,1l-4.15,2.89L756,146.78A30.2,30.2,0,0,0,751.73,138Z" transform="translate(-26 -11.93)"/><path class="cls-5" d="M319.5,163s10.48,63.29,69.62,74.34" transform="translate(-26 -11.93)"/><path d="M395.09,238.25a30.22,30.22,0,0,0-9.19,3.36l2.45-4.43-1-5A30.2,30.2,0,0,0,395.09,238.25Z" transform="translate(-26 -11.93)"/><path class="cls-5" d="M519.63,163.55s-11.39,63.13-70.69,73.32" transform="translate(-26 -11.93)"/><path d="M443,237.7a30.22,30.22,0,0,0,7.78-5.93l-1,5,2.38,4.46A30.2,30.2,0,0,0,443,237.7Z" transform="translate(-26 -11.93)"/><path class="cls-5" d="M423.42,286s29.89,43.19,11,56.91-30.77-2.15-30.77-2.15-17.06-16.77,8.91-49.6" transform="translate(-26 -11.93)"/><path d="M416.4,286.5a30.22,30.22,0,0,0-1.72,9.63l-2.6-4.34-4.77-1.67A30.2,30.2,0,0,0,416.4,286.5Z" transform="translate(-26 -11.93)"/><text class="cls-7" transform="translate(82.68 126.35)">Q0</text><text class="cls-7" transform="translate(282.68 126.35)">Q1</text><text class="cls-7" transform="translate(482.68 126.35)">Q2</text><text class="cls-7" transform="translate(682.68 126.35)">Q3</text><text class="cls-7" transform="translate(381.68 250.55)">Q4</text><text class="cls-7" transform="translate(84 21.07)">_</text><text class="cls-7" transform="translate(489.64 15.07)">:</text><line class="cls-5" x1="56.96" y1="120.57" y2="120.57"/><path d="M89,132.5a30.22,30.22,0,0,1-8.55-4.76l1.72,4.76-1.72,4.75A30.2,30.2,0,0,1,89,132.5Z" transform="translate(-26 -11.93)"/></svg>