<?xml version="1.0" encoding="UTF-8" standalone="no"?>
<!DOCTYPE svg PUBLIC "-//W3C//DTD SVG 1.1//EN"
"http://www.w3.org/Graphics/SVG/1.1/DTD/svg11.dtd">


<!-- Page 1 -->
<svg x="0" y="0" width="664" height="243" viewBox="0 0 575 243" version="1.1" xmlns="http://www.w3.org/2000/svg" xmlns:xlink="http://www.w3.org/1999/xlink"
style="display: block;margin-left: auto;margin-right: auto;">
<defs>

<style type="text/css"><![CDATA[

.g6_1{
fill: none;
stroke: #000000;
stroke-width: 0.43561855;
stroke-linecap: round;
stroke-linejoin: round;
}
.g7_1{
fill: none;
stroke: #000000;
stroke-width: 0.2675897;
stroke-linecap: round;
stroke-linejoin: round;
}
.g2_1{
fill: none;
stroke: #FFFFFF;
stroke-width: 0.9132446;
stroke-linecap: butt;
stroke-linejoin: miter;
}
.g5_1{
fill: #B3FFB3;
stroke: #000000;
stroke-width: 2.130914;
stroke-linecap: butt;
stroke-linejoin: miter;
}
.g4_1{
fill: none;
stroke: #000000;
stroke-width: 0.48704025;
stroke-linecap: round;
stroke-linejoin: round;
}
.g8_1{
fill: none;
stroke: #000000;
stroke-width: 0.21255411;
stroke-linecap: round;
stroke-linejoin: round;
}
.g3_1{
fill: none;
stroke: #000000;
stroke-width: 0.6088194;
stroke-linecap: butt;
stroke-linejoin: miter;
}
.g1_1{
fill: #FFD9B3;
stroke: #000000;
stroke-width: 2.130914;
stroke-linecap: butt;
stroke-linejoin: miter;
}

.s3_1{
font-size: 18.26px;
font-family: CMR12_9;
fill: TRANSPARENT;
}
.s2_1{
font-size: 12.18px;
font-family: CMR8_8;
fill: TRANSPARENT;
}
.s1_1{
font-size: 18.26px;
font-family: CMMI12_7;
fill: TRANSPARENT;
}

]]></style>

</defs>
<path d="M0,0
L0,243
L575,243
L575,0 Z " 
fill="#FFFFFF" stroke="none" />
<path d="M118.9,151.5c0,-12.3,-10,-22.3,-22.3,-22.3c-12.4,0,-22.4,10,-22.4,22.3c0,12.4,10,22.4,22.4,22.4c12.3,0,22.3,-10,22.3,-22.4Z" class="g1_1" />
<path d="M118.9,151.5c0,-12.3,-10,-22.3,-22.3,-22.3c-12.4,0,-22.4,10,-22.4,22.3c0,12.4,10,22.4,22.4,22.4c12.3,0,22.3,-10,22.3,-22.4Z" class="g2_1" />
<g fill="#000000" >
<use xlink:href="#f0_2" transform="matrix(12,0,0,12,89,153.7)" />
<use xlink:href="#f1_1" transform="matrix(8,0,0,8,96.9,156.4)" />
</g>
<text 
x="88" 
y="153" 
dx="0" 
class="s1_1"
>q</text>

<text 
x="96" 
y="156" 
dx="0" 
class="s2_1"
>0</text>

<path d="M49.8,151.5l21.4,0" class="g3_1" />
<path d="M69.4,149.1c0.1,0.9,1.8,2.3,2.3,2.4c-0.5,0.2,-2.2,1.6,-2.3,2.5" class="g4_1" />
<g fill="#000000" >
<use xlink:href="#f2_4" transform="matrix(12,0,0,12,6.7,157.2)" />
<use xlink:href="#f2_5" transform="matrix(12,0,0,12,13.8,157.2)" />
<use xlink:href="#f2_1" transform="matrix(12,0,0,12,20.7,157.2)" />
<use xlink:href="#f2_3" transform="matrix(12,0,0,12,29.7,157.2)" />
<use xlink:href="#f2_5" transform="matrix(12,0,0,12,36.6,157.2)" />
</g>
<text 
x="6" 
y="157" 
dx="0,0,0,0,0" 
class="s3_1"
>start</text>

<path d="M205.5,151.5c0,-12.3,-10,-22.3,-22.3,-22.3c-12.4,0,-22.4,10,-22.4,22.3c0,12.4,10,22.4,22.4,22.4c12.3,0,22.3,-10,22.3,-22.4Z" class="g3_1" />
<g fill="#000000" >
<use xlink:href="#f0_2" transform="matrix(12,0,0,12,175.6,153.7)" />
<use xlink:href="#f1_2" transform="matrix(8,0,0,8,183.5,156.4)" />
</g>
<text 
x="175" 
y="153" 
dx="0" 
class="s1_1"
>q</text>

<text 
x="183" 
y="156" 
dx="0" 
class="s2_1"
>1</text>

<path d="M292.1,108.2c0,-12.3,-10,-22.3,-22.3,-22.3c-12.4,0,-22.4,10,-22.4,22.3c0,12.4,10,22.4,22.4,22.4c12.3,0,22.3,-10,22.3,-22.4Z" class="g3_1" />
<g fill="#000000" >
<use xlink:href="#f0_2" transform="matrix(12,0,0,12,262.2,110.4)" />
<use xlink:href="#f1_3" transform="matrix(8,0,0,8,270.1,113.1)" />
</g>
<text 
x="262" 
y="110" 
dx="0" 
class="s1_1"
>q</text>

<text 
x="270" 
y="113" 
dx="0" 
class="s2_1"
>2</text>

<path d="M378.8,108.2c0,-12.3,-10,-22.3,-22.4,-22.3c-12.3,0,-22.4,10,-22.4,22.3c0,12.4,10.1,22.4,22.4,22.4c12.4,0,22.4,-10,22.4,-22.4Z" class="g3_1" />
<g fill="#000000" >
<use xlink:href="#f0_2" transform="matrix(12,0,0,12,348.8,110.4)" />
<use xlink:href="#f1_4" transform="matrix(8,0,0,8,356.8,113.1)" />
</g>
<text 
x="348" 
y="110" 
dx="0" 
class="s1_1"
>q</text>

<text 
x="356" 
y="113" 
dx="0" 
class="s2_1"
>3</text>

<path d="M487,108.2C487,95.9,477,85.9,464.7,85.9c-12.4,0,-22.4,10,-22.4,22.3c0,12.4,10,22.4,22.4,22.4c12.3,0,22.3,-10,22.3,-22.4Z" class="g3_1" />
<g fill="#000000" >
<use xlink:href="#f0_2" transform="matrix(12,0,0,12,457.1,110.4)" />
<use xlink:href="#f1_5" transform="matrix(8,0,0,8,465,113.1)" />
</g>
<text 
x="457" 
y="110" 
dx="0" 
class="s1_1"
>q</text>

<text 
x="465" 
y="113" 
dx="0" 
class="s2_1"
>4</text>

<path d="M573.6,108.2c0,-12.3,-10,-22.3,-22.3,-22.3c-12.4,0,-22.4,10,-22.4,22.3c0,12.4,10,22.4,22.4,22.4c12.3,0,22.3,-10,22.3,-22.4Z" class="g5_1" />
<path d="M573.6,108.2c0,-12.3,-10,-22.3,-22.3,-22.3c-12.4,0,-22.4,10,-22.4,22.3c0,12.4,10,22.4,22.4,22.4c12.3,0,22.3,-10,22.3,-22.4Z" class="g2_1" />
<g fill="#000000" >
<use xlink:href="#f0_2" transform="matrix(12,0,0,12,543.7,110.4)" />
<use xlink:href="#f1_6" transform="matrix(8,0,0,8,551.6,113.1)" />
</g>
<text 
x="543" 
y="110" 
dx="0" 
class="s1_1"
>q</text>

<text 
x="551" 
y="113" 
dx="0" 
class="s2_1"
>5</text>

<path d="M292.1,194.9c0,-12.4,-10,-22.4,-22.3,-22.4c-12.4,0,-22.4,10,-22.4,22.4c0,12.3,10,22.3,22.4,22.3c12.3,0,22.3,-10,22.3,-22.3Z" class="g3_1" />
<g fill="#000000" >
<use xlink:href="#f0_2" transform="matrix(12,0,0,12,262.2,197)" />
<use xlink:href="#f1_7" transform="matrix(8,0,0,8,270.1,199.7)" />
</g>
<text 
x="262" 
y="197" 
dx="0" 
class="s1_1"
>q</text>

<text 
x="270" 
y="199" 
dx="0" 
class="s2_1"
>6</text>

<path d="M378.8,194.9c0,-12.4,-10,-22.4,-22.4,-22.4c-12.3,0,-22.4,10,-22.4,22.4c0,12.3,10.1,22.3,22.4,22.3c12.4,0,22.4,-10,22.4,-22.3Z" class="g5_1" />
<path d="M378.8,194.9c0,-12.4,-10,-22.4,-22.4,-22.4c-12.3,0,-22.4,10,-22.4,22.4c0,12.3,10.1,22.3,22.4,22.3c12.4,0,22.4,-10,22.4,-22.3Z" class="g2_1" />
<g fill="#000000" >
<use xlink:href="#f0_2" transform="matrix(12,0,0,12,348.8,197)" />
<use xlink:href="#f1_8" transform="matrix(8,0,0,8,356.8,199.7)" />
</g>
<text 
x="348" 
y="197" 
dx="0" 
class="s1_1"
>q</text>

<text 
x="356" 
y="199" 
dx="0" 
class="s2_1"
>7</text>

<path d="M119.7,151.5l38.6,0" class="g3_1" />
<path d="M156.5,149.1c0.1,0.9,1.8,2.3,2.2,2.4c-0.4,0.2,-2.1,1.6,-2.2,2.5" class="g4_1" />
<g fill="#000000" >
<use xlink:href="#f0_1" transform="matrix(12,0,0,12,135.9,145.3)" />
</g>
<text 
x="135" 
y="145" 
dx="0" 
class="s1_1"
>ε</text>

<path d="M203.4,141.4l44.1,-22" class="g3_1" />
<path d="M244.8,118c0.6,0.8,2.7,1.2,3.1,1.2c-0.3,0.3,-1.2,2.3,-0.9,3.2" class="g6_1" />
<g fill="#000000" >
<use xlink:href="#f0_1" transform="matrix(12,0,0,12,211.8,123.6)" />
</g>
<text 
x="211" 
y="123" 
dx="0" 
class="s1_1"
>ε</text>

<path d="M203.4,161.7l44.1,22" class="g3_1" />
<path d="M247,180.7c-0.3,0.9,0.6,2.9,0.9,3.2c-0.4,0,-2.5,0.4,-3.1,1.2" class="g6_1" />
<g fill="#000000" >
<use xlink:href="#f0_1" transform="matrix(12,0,0,12,211.8,187.3)" />
</g>
<text 
x="211" 
y="187" 
dx="0" 
class="s1_1"
>ε</text>

<path d="M292.4,108.2l39.1,0" class="g3_1" />
<path d="M329.7,105.8c0.1,0.9,1.8,2.3,2.3,2.4c-0.5,0.2,-2.2,1.6,-2.3,2.5" class="g4_1" />
<g fill="#000000" >
<use xlink:href="#f2_1" transform="matrix(12,0,0,12,308.6,102)" />
</g>
<text 
x="308" 
y="101" 
dx="0" 
class="s3_1"
>a</text>

<path d="M379.1,108.2l60.7,0" class="g3_1" />
<path d="M438,105.8c0.1,0.9,1.8,2.3,2.2,2.4c-0.4,0.2,-2.1,1.6,-2.2,2.5" class="g4_1" />
<g fill="#000000" >
<use xlink:href="#f0_1" transform="matrix(12,0,0,12,406.4,102)" />
</g>
<text 
x="406" 
y="101" 
dx="0" 
class="s1_1"
>ε</text>

<path d="M487.3,108.2l38.6,0" class="g3_1" />
<path d="M524.1,105.8c0.2,0.9,1.8,2.3,2.3,2.4c-0.5,0.2,-2.1,1.6,-2.3,2.5" class="g4_1" />
<g fill="#000000" >
<use xlink:href="#f2_2" transform="matrix(12,0,0,12,502.8,102)" />
</g>
<text 
x="502" 
y="101" 
dx="0" 
class="s3_1"
>b</text>

<path d="M534.4,92.4C437.3,1.1,268.7,21.1,196.9,130.7" class="g3_1" />
<path d="M199.9,130.5c-0.8,-0.4,-2.9,0.3,-3.3,0.6c0.1,-0.5,-0.1,-2.7,-0.8,-3.3" class="g7_1" />
<g fill="#000000" >
<use xlink:href="#f0_1" transform="matrix(12,0,0,12,351.8,30.1)" />
</g>
<text 
x="351" 
y="30" 
dx="0" 
class="s1_1"
>ε</text>

<path d="M292.4,194.9c16,0,25,0,38.7,0" class="g3_1" />
<path d="M329.2,192.4c0.2,0.9,1.9,2.3,2.3,2.5c-0.4,0.1,-2.1,1.5,-2.3,2.4" class="g4_1" />
<g fill="#000000" >
<use xlink:href="#f2_1" transform="matrix(12,0,0,12,308.4,188.6)" />
</g>
<text 
x="308" 
y="188" 
dx="0" 
class="s3_1"
>a</text>

<path d="M337.6,208.5C290.5,242.5,218.5,224.4,194.1,174" class="g3_1" />
<path d="M192.7,176.7c0.8,-0.6,1.3,-2.7,1.2,-3.1c0.3,0.3,2.3,1.2,3.2,1" class="g8_1" />
<g fill="#000000" >
<use xlink:href="#f0_1" transform="matrix(12,0,0,12,253,236.8)" />
</g>
<text 
x="253" 
y="236" 
dx="0" 
class="s1_1"
>ε</text>


<defs>
	<path d="M256.7,15.3c71.8,0,139,65.7,172.6,108.5c21.4,29,21.4,32,29,58l74.9,299.5c1.5,3,6.1,22.9,6.1,24.4c0,12.2,-19.9,137.5,-120.7,137.5c-59.6,0,-131.4,-55,-183.3,-161.9C206.3,417.1,158.9,246,158.9,161.9C158.9,71.8,194,15.3,256.7,15.3ZM241.4,-296.3c-10.7,0,-19.9,4.6,-19.9,15.3c0,29,15.3,29,32.1,29c71.8,1.5,94.7,1.5,108.5,47.4l13.7,55l58.1,229L432.4,81C400.3,45.8,333.1,-15.2,252.1,-15.2C148.2,-15.2,59.6,73.3,59.6,224.6c0,226.1,186.4,449.2,359,449.2c65.7,0,113.1,-41.3,140.6,-110c29,53.4,88.6,108.4,100.8,108.4c7.6,0,13.8,-6.1,13.8,-13.7L461.4,-200c-4.6,-19.9,-6.1,-21.4,-6.1,-29.1c0,-12.2,4.6,-22.9,76.4,-22.9c22.9,0,35.1,0,35.1,-15.3c0,-29,-18.3,-29,-27.5,-29c-22.9,0,-48.9,3.1,-71.8,3.1l-155.8,0c-21.4,0,-48.9,-3.1,-70.3,-3.1Z" 
	id="f0_2"
	transform="scale(0.001,-0.001)" />

	<path d="M404.9,10.7c50.4,0,155.8,21.4,187.9,181.8c18.3,85.6,18.3,223.1,18.3,313.2c0,103.9,0,218.5,-18.3,302.5c-30.6,139,-136,165,-187.9,165c-38.2,0,-157.4,-15.3,-189.5,-171.1c-16.8,-84,-16.8,-191,-16.8,-296.4c0,-79.4,0,-223.1,16.8,-310.1C247.5,35.1,352.9,10.7,404.9,10.7Zm0,-42.7c-81,0,-194.1,29,-264.3,142c-73.4,122.2,-78,276.5,-78,377.4c0,79.4,3.1,230.7,58.1,342.2c21.4,42.8,91.7,186.4,284.2,186.4c84,0,207.7,-33.6,275,-168.1c50.4,-97.8,67.2,-197.1,67.2,-360.5c0,-99.3,-4.6,-235.3,-61.1,-345.3C609.6,-9.1,478.2,-32,404.9,-32Z" 
	id="f1_1"
	transform="scale(0.001,-0.001)" />

	<path d="M65.7,-15.2c-15.3,0,-15.3,7.7,-15.3,35.1l0,207.7c0,27.5,0,35.2,16.8,35.2c4.6,0,10.7,0,13.8,-6.1c1.5,-1.6,1.5,-3.1,7.6,-30.6C122.2,73.3,195.6,15.3,296.4,15.3c134.4,0,172.6,73.3,172.6,139c0,42.8,-19.8,76.4,-47.3,99.3c-38.2,30.6,-58.1,35.2,-142.1,52C209.3,319.3,157.4,330,108.5,372.8C50.4,426.3,50.4,479.7,50.4,496.5c0,84.1,55,184.9,239.9,184.9c48.9,0,96.2,-9.2,143.6,-47.4c10.7,13.8,39.7,47.4,51.9,47.4c15.3,0,15.3,-7.6,15.3,-35.1l0,-158.9c0,-27.5,0,-35.2,-16.8,-35.2c-4.6,0,-15.3,0,-16.8,12.2c-3.1,47.4,-12.2,189.5,-178.7,189.5C151.3,653.9,119.2,583.6,119.2,536.3C119.2,444.6,230.7,423.2,276.5,414C377.4,395.7,418.6,386.5,473.6,339.2C487.4,325.4,537.8,276.5,537.8,194C537.8,73.3,458.3,-15.2,297.9,-15.2c-26,0,-108.5,0,-166.5,71.7C108.5,32.1,108.5,29,100.8,18.3C74.9,-13.7,73.3,-15.2,65.7,-15.2Z" 
	id="f2_4"
	transform="scale(0.001,-0.001)" />

	<path d="M351.4,-15.2c-81,0,-194,35.1,-194,204.6l0,424.8l-129.9,0l0,30.5c139,4.6,194,151.3,195.6,294.9l33.6,0l0,-281.1l215.4,0l0,-44.3l-215.4,0l0,-427.8c0,-26,0,-168.1,103.9,-168.1c59.5,0,103.8,64.2,103.8,174.2l0,84l33.7,0l0,-87.1c0,-110,-50.5,-204.6,-146.7,-204.6Z" 
	id="f2_5"
	transform="scale(0.001,-0.001)" />

	<path d="M313.2,15.3c65.7,0,177.2,50.4,177.2,200.1l0,151.3C435.4,363.6,175.7,345.3,175.7,143.6C175.7,70.3,238.3,15.3,313.2,15.3ZM301,-15.2C207.8,-15.2,67.2,22.9,67.2,143.6c0,117.7,116.1,246,423.2,250.6l0,61.1c0,137.5,-90.1,195.5,-160.4,195.5c-61.1,0,-134.4,-27.5,-169.6,-91.6c22.9,0,77.9,0,77.9,-62.7c0,-36.6,-25.9,-62.6,-62.6,-62.6c-35.1,0,-64.2,21.4,-64.2,65.7c0,99.3,96.3,181.8,221.6,181.8c67.2,0,135.9,-21.4,189.4,-70.3c67.2,-59.6,67.2,-120.7,67.2,-203.2l0,-267.3c0,-23,0,-103.9,58.1,-103.9c21.4,0,58,12.2,58,99.3l0,85.5l33.6,0l0,-85.5C739.4,13.8,650.8,-7.5,618.8,-7.5c-65.7,0,-113.1,54.9,-119.2,126.7C470.6,45.8,401.8,-15.2,301,-15.2Z" 
	id="f2_1"
	transform="scale(0.001,-0.001)" />

	<path d="M42.8,0l0,44.3c99.3,0,116.1,0,116.1,68.8l0,414c0,74.8,-12.2,85.5,-116.1,85.5l0,44.3l204.7,16.9l0,-169.6l1.5,0c9.2,29,53.5,169.6,183.4,169.6c65.7,0,106.9,-42.8,106.9,-88.7C539.3,543.9,508.8,524,478.2,524c-24.4,0,-59.6,16.8,-59.6,61.1c0,41.3,24.5,50.5,36.7,56.6c-6.1,1.5,-9.2,1.5,-21.4,1.5C316.3,643.2,255.1,504.2,255.1,356l0,-239.9c0,-55,3.1,-71.8,114.6,-71.8l30.6,0L365.1,3.1l-195.5,0C85.6,3.1,215.4,0,42.8,0Z" 
	id="f2_3"
	transform="scale(0.001,-0.001)" />

	<path d="M155.8,0l0,50.4l53.5,0C354.4,50.4,359,68.8,359,125.3L359,909C270.4,867.8,187.9,867.8,146.7,867.8l0,50.4c145.1,0,226.1,36.7,288.7,97.8c41.3,0,44.3,-1.6,44.3,-42.8l0,-847.9c0,-56.5,4.6,-74.9,149.7,-74.9l53.5,0L620.3,4.6l-270.4,0C218.5,4.6,418.6,0,155.8,0Z" 
	id="f1_2"
	transform="scale(0.001,-0.001)" />

	<path d="M81,0c0,38.2,0,41.3,18.3,58.1L291.8,256.7C472.1,441.5,583.6,557.6,583.6,716.5c0,128.4,-73.3,249.1,-215.4,249.1C293.3,965.6,191,927.4,146.7,815.8c18.3,0,94.7,0,94.7,-79.4c0,-58.1,-47.4,-81,-79.5,-81C140.6,655.4,81,666.1,81,741c0,135.9,120.7,275,304,275c191,0,343.8,-117.7,343.8,-299.5c0,-139,-90.2,-223,-184.9,-310.1C519.4,385,455.3,334.6,430.8,311.7L224.6,125.3l271.9,0c24.5,0,140.6,0,149.8,12.2c18.3,29,30.5,105.4,35.1,136l47.4,0L684.4,0Z" 
	id="f1_3"
	transform="scale(0.001,-0.001)" />

	<path d="M397.2,-32c-174.1,0,-330,94.6,-330,239.8c0,61.1,42.8,87.1,84.1,87.1c48.8,0,84,-35.2,84,-84.1c0,-50.4,-38.2,-85.5,-93.2,-85.5C195.6,44.3,310.1,13.8,394.2,13.8c80.9,0,189.4,56.5,189.4,247.5c0,160.4,-76.4,249,-197.1,249l-76.4,0c-25.9,0,-39.7,0,-39.7,21.4c0,19.8,12.2,21.4,41.3,22.9c93.2,6.1,128.3,9.2,174.1,56.5c21.4,24.5,65.7,88.6,65.7,195.6C551.5,964,435.4,976.3,395.7,976.3c-27.5,0,-145.1,-4.6,-209.3,-88.7c33.6,-1.5,82.5,-22.9,82.5,-79.4c0,-44.3,-30.6,-77.9,-77.9,-77.9c-39.7,0,-77.9,24.4,-77.9,81c0,116.1,123.7,204.7,287.2,204.7c158.9,0,296.4,-87.1,296.4,-209.3C696.7,684.4,606.5,580.6,485.8,537.8C641.7,504.2,742.5,388.1,742.5,261.3C742.5,108.5,600.4,-32,397.2,-32Z" 
	id="f1_4"
	transform="scale(0.001,-0.001)" />

	<path d="M487.4,301l0,563.7L99.3,301ZM319.3,0l0,50.4l35.1,0c117.7,0,122.3,16.8,122.3,73.4l0,126.8l-430.9,0l0,50.4l487.4,707.3c15.3,21.4,16.8,23,36.7,23c32,0,32,-12.3,32,-42.8l0,-687.5l162,0l0,-50.4l-162,0l0,-126.8c0,-56.6,4.6,-73.4,122.3,-73.4l35.1,0L629.4,4.6l-177.2,0C449.2,4.6,539.3,0,319.3,0Z" 
	id="f1_5"
	transform="scale(0.001,-0.001)" />

	<path d="M375.8,-32C200.1,-32,81,106.9,81,244.4c0,65.7,48.9,81,76.4,81c30.5,0,74.8,-19.8,74.8,-76.4c0,-47.3,-33.6,-74.8,-76.4,-74.8c-1.5,0,-10.7,0,-15.2,1.5C175.7,76.4,273.5,13.8,372.8,13.8c81,0,142.1,47.3,171.1,93.1c42.8,67.3,44.3,149.8,44.3,206.3c0,59.6,-3.1,129.9,-29,184.9c-13.8,29,-55,99.3,-140.6,99.3c-129.8,0,-187.9,-78,-206.2,-100.9c-7.7,-12.2,-12.3,-18.3,-24.5,-18.3c-24.4,0,-24.4,18.3,-24.4,45.8l0,447.7c0,27.5,0,44.3,19.8,44.3c1.6,0,4.6,0,19.9,-7.7C250.6,990,325.4,967.1,415.6,967.1c82.5,0,152.7,18.3,212.3,41.2c13.8,7.7,16.8,7.7,19.9,7.7c7.6,0,18.3,-4.6,18.3,-21.4C666.1,971.7,550,837.2,359,837.2c-64.1,0,-125.2,15.3,-145.1,21.4l0,-294.8c58,51.9,129.9,76.3,206.2,76.3c180.3,0,308.7,-157.3,308.7,-334.5C728.8,116.1,566.8,-32,375.8,-32Z" 
	id="f1_6"
	transform="scale(0.001,-0.001)" />

	<path d="M407.9,13.8c67.2,0,120.7,27.5,160.4,97.7c30.6,55,30.6,122.3,30.6,200.2c0,77.9,0,146.6,-32.1,203.2c-29,53.4,-74.9,93.2,-151.2,93.2C297.9,608.1,215.4,495,215.4,343.8c0,-58.1,3.1,-162,38.2,-230.7C276.5,70.3,326.9,13.8,407.9,13.8Zm0,-45.8C259.7,-32,67.2,70.3,67.2,484.3c0,330,215.4,531.7,427.8,531.7c137.5,0,206.3,-74.9,206.3,-166.6c0,-58,-44.4,-74.8,-71.9,-74.8c-36.6,0,-71.8,26,-71.8,71.8c0,16.8,6.2,68.7,74.9,71.8c-35.1,53.5,-105.4,58.1,-136,58.1c-96.2,0,-174.1,-62.7,-220,-139.1C221.5,744,210.8,632.5,210.8,505.7C246,580.6,311.7,650.8,421.7,650.8c169.6,0,320.8,-140.5,320.8,-340.7c0,-132.9,-51.9,-197,-113.1,-256.6C560.7,-12.1,481.3,-32,407.9,-32Z" 
	id="f1_7"
	transform="scale(0.001,-0.001)" />

	<path d="M360.6,-32c-71.8,0,-71.8,70.2,-71.8,85.5c0,120.7,36.6,362.1,210.8,594.3L656.9,858.6l-323.8,0c-23,0,-137.5,0,-154.3,-7.6C157.4,838.8,140.6,733.3,137.5,710.4l-47.4,0l52,322.4l47.3,0c4.6,-24.5,6.2,-38.2,85.6,-44.3c38.2,-3.1,85.6,-4.6,123.8,-4.6l388,0c0,-33.6,0,-36.7,-13.7,-53.5L543.9,627.9C469,528.6,432.4,348.3,432.4,128.3l0,-73.3c0,-18.3,0,-87,-71.8,-87Z" 
	id="f1_8"
	transform="scale(0.001,-0.001)" />

	<path d="M342.2,359c55,0,58.1,0,84.1,12.3c-24.5,6.1,-32.1,9.1,-74.9,9.1c-10.7,0,-50.4,0,-91.7,-13.7c30.6,-7.7,55,-7.7,82.5,-7.7ZM281.1,-32C134.4,-32,39.7,51.9,39.7,157.4c0,74.8,52,157.3,140.6,207.7c-26,18.4,-62.7,53.5,-62.7,110c0,113.1,162,215.5,333.1,215.5c105.4,0,194,-58.1,194,-85.6c0,-18.3,-19.8,-38.2,-38.2,-38.2c-10.7,0,-15.2,4.6,-24.4,10.7c-64.2,47.4,-119.2,47.4,-145.2,47.4C301,624.9,151.3,569.9,151.3,475.1c0,-33.6,18.3,-68.7,65.6,-91.6c53.5,22.9,99.4,27.5,137.5,27.5c78,0,107,-10.7,107,-38.2c0,-44.3,-79.5,-44.3,-119.2,-44.3c-29,0,-80.9,0,-129.8,19.8C113.1,296.4,74.9,218.5,74.9,166.5C74.9,58.1,200.1,33.6,294.9,33.6c181.8,0,221.5,61.1,238.3,90.2c6.1,9.1,9.2,13.7,16.8,13.7c7.6,0,13.8,-6.1,13.8,-13.7C563.8,102.4,482.8,-32,281.1,-32Z" 
	id="f0_1"
	transform="scale(0.001,-0.001)" />

	<path d="M440,15.3c76.4,0,137.5,47.3,168.1,94.7C644.7,165,660,229.2,660,331.5C660,624.9,499.6,643.2,453.8,643.2C378.9,643.2,311.7,598.9,275,543.9c-16.8,-24.5,-16.8,-27.5,-16.8,-55l0,-314.7c0,-26,0,-32.1,19.9,-64.2C304,68.8,357.5,15.3,440,15.3Zm6.1,-30.5c-97.8,0,-163.5,58,-198.6,114.5C241.4,88.6,198.6,12.2,192.5,0L158.9,0l0,913.6c0,74.9,-12.2,85.6,-116.1,85.6l0,44.3l212.3,16.8l0,-488.9c52,64.2,123.8,102.4,207.8,102.4C632.5,673.8,776.1,524,776.1,330c0,-197.1,-154.3,-345.2,-330,-345.2Z" 
	id="f2_2"
	transform="scale(0.001,-0.001)" />


</defs>

<!-- Any embedded fonts defined here -->
<style type="text/css" ><![CDATA[

@font-face {
	font-family: CMMI12_7;
	src: url("fonts/CMMI12_7.woff") format("woff");
}

@font-face {
	font-family: CMR12_9;
	src: url("fonts/CMR12_9.woff") format("woff");
}

@font-face {
	font-family: CMR8_8;
	src: url("fonts/CMR8_8.woff") format("woff");
}

]]></style>

</svg>
