<?xml version="1.0" encoding="UTF-8" standalone="no"?>
<!DOCTYPE svg PUBLIC "-//W3C//DTD SVG 1.1//EN"
"http://www.w3.org/Graphics/SVG/1.1/DTD/svg11.dtd">


<!-- Page 1 -->
<svg x="0" y="0" width="664" height="455" viewBox="0 0 170 455" version="1.1" xmlns="http://www.w3.org/2000/svg" xmlns:xlink="http://www.w3.org/1999/xlink"
style="display: block;margin-left: auto;margin-right: auto;">
<defs>

<style type="text/css"><![CDATA[

.g4_1{
fill: #B3FFB3;
stroke: #000000;
stroke-width: 3;
stroke-linecap: butt;
stroke-linejoin: miter;
}
.g3_1{
fill: #FFB3B3;
stroke: #000000;
stroke-width: 1;
stroke-linecap: butt;
stroke-linejoin: miter;
}
.g5_1{
fill: none;
stroke: #FFFFFF;
stroke-width: 1;
stroke-linecap: butt;
stroke-linejoin: miter;
}
.g2_1{
fill: none;
stroke: #000000;
stroke-width: 1;
stroke-linecap: butt;
stroke-linejoin: miter;
}
.g6_1{
fill: none;
stroke: #000000;
stroke-width: 1;
stroke-linecap: round;
stroke-linejoin: round;
}
.g1_1{
fill: #FFD9B3;
stroke: #000000;
stroke-width: 1;
stroke-linecap: butt;
stroke-linejoin: miter;
}

.s3_1{
font-size: 18.26px;
font-family: CMR12_9;
fill: TRANSPARENT;
}
.s2_1{
font-size: 12.18px;
font-family: CMR8_8;
fill: TRANSPARENT;
}
.s1_1{
font-size: 18.26px;
font-family: CMMI12_7;
fill: TRANSPARENT;
}

]]></style>

</defs>
<path d="M0,0
L0,455
L170,455
L170,0 Z " 
fill="#FFFFFF" stroke="none" />
<path d="M107.8,23.4C107.8,11.1,97.8,1.1,85.4,1.1c-12.3,0,-22.3,10,-22.3,22.3c0,12.4,10,22.4,22.3,22.4c12.4,0,22.4,-10,22.4,-22.4Z" class="g1_1" />
<g fill="#000000" >
<use xlink:href="#f0_1" transform="matrix(12,0,0,12,77.9,25.6)" />
<use xlink:href="#f1_1" transform="matrix(8,0,0,8,85.8,28.3)" />
</g>
<text 
x="77" 
y="25" 
dx="0" 
class="s1_1"
>q</text>

<text 
x="85" 
y="28" 
dx="0" 
class="s2_1"
>0</text>

<path d="M46.5,84.7C46.5,72.3,36.5,62.3,24.2,62.3C11.8,62.3,1.8,72.3,1.8,84.7C1.8,97,11.8,107,24.2,107C36.5,107,46.5,97,46.5,84.7Z" class="g2_1" />
<g fill="#000000" >
<use xlink:href="#f0_1" transform="matrix(12,0,0,12,16.6,86.8)" />
<use xlink:href="#f1_2" transform="matrix(8,0,0,8,24.5,89.6)" />
</g>
<text 
x="16" 
y="86" 
dx="0" 
class="s1_1"
>q</text>

<text 
x="24" 
y="89" 
dx="0" 
class="s2_1"
>1</text>

<path d="M169,84.7C169,72.3,159,62.3,146.7,62.3c-12.4,0,-22.4,10,-22.4,22.4c0,12.3,10,22.3,22.4,22.3C159,107,169,97,169,84.7Z" class="g2_1" />
<g fill="#000000" >
<use xlink:href="#f0_1" transform="matrix(12,0,0,12,139.1,86.8)" />
<use xlink:href="#f1_3" transform="matrix(8,0,0,8,147,89.6)" />
</g>
<text 
x="139" 
y="86" 
dx="0" 
class="s1_1"
>q</text>

<text 
x="147" 
y="89" 
dx="0" 
class="s2_1"
>2</text>

<path d="M169,171.3c0,-12.4,-10,-22.4,-22.3,-22.4c-12.4,0,-22.4,10,-22.4,22.4c0,12.3,10,22.3,22.4,22.3c12.3,0,22.3,-10,22.3,-22.3Z" class="g3_1" />
<g fill="#000000" >
<use xlink:href="#f0_1" transform="matrix(12,0,0,12,139.1,173.4)" />
<use xlink:href="#f1_4" transform="matrix(8,0,0,8,147,176.2)" />
</g>
<text 
x="139" 
y="173" 
dx="0" 
class="s1_1"
>q</text>

<text 
x="147" 
y="176" 
dx="0" 
class="s2_1"
>3</text>

<path d="M46.5,171.3c0,-12.4,-10,-22.4,-22.3,-22.4c-12.4,0,-22.4,10,-22.4,22.4c0,12.3,10,22.3,22.4,22.3c12.3,0,22.3,-10,22.3,-22.3Z" class="g2_1" />
<g fill="#000000" >
<use xlink:href="#f0_1" transform="matrix(12,0,0,12,16.6,173.4)" />
<use xlink:href="#f1_1" transform="matrix(8,0,0,8,24.5,176.2)" />
</g>
<text 
x="16" 
y="173" 
dx="0" 
class="s1_1"
>q</text>

<text 
x="24" 
y="176" 
dx="0" 
class="s2_1"
>0</text>

<path d="M46.5,257.9c0,-12.3,-10,-22.4,-22.3,-22.4c-12.4,0,-22.4,10.1,-22.4,22.4c0,12.3,10,22.4,22.4,22.4c12.3,0,22.3,-10.1,22.3,-22.4Z" class="g2_1" />
<g fill="#000000" >
<use xlink:href="#f0_1" transform="matrix(12,0,0,12,16.6,260.1)" />
<use xlink:href="#f1_2" transform="matrix(8,0,0,8,24.5,262.8)" />
</g>
<text 
x="16" 
y="260" 
dx="0" 
class="s1_1"
>q</text>

<text 
x="24" 
y="262" 
dx="0" 
class="s2_1"
>1</text>

<path d="M111.5,257.9c0,-12.3,-10,-22.4,-22.4,-22.4c-12.3,0,-22.3,10.1,-22.3,22.4c0,12.3,10,22.4,22.3,22.4c12.4,0,22.4,-10.1,22.4,-22.4Z" class="g2_1" />
<g fill="#000000" >
<use xlink:href="#f0_1" transform="matrix(12,0,0,12,81.6,260.1)" />
<use xlink:href="#f1_3" transform="matrix(8,0,0,8,89.5,262.8)" />
</g>
<text 
x="81" 
y="260" 
dx="0" 
class="s1_1"
>q</text>

<text 
x="89" 
y="262" 
dx="0" 
class="s2_1"
>2</text>

<path d="M46.5,344.5c0,-12.3,-10,-22.3,-22.3,-22.3c-12.4,0,-22.4,10,-22.4,22.3c0,12.4,10,22.4,22.4,22.4c12.3,0,22.3,-10,22.3,-22.4Z" class="g2_1" />
<g fill="#000000" >
<use xlink:href="#f0_1" transform="matrix(12,0,0,12,16.6,346.7)" />
<use xlink:href="#f1_1" transform="matrix(8,0,0,8,24.5,349.4)" />
</g>
<text 
x="16" 
y="346" 
dx="0" 
class="s1_1"
>q</text>

<text 
x="24" 
y="349" 
dx="0" 
class="s2_1"
>0</text>

<path d="M111.5,344.5c0,-12.3,-10,-22.3,-22.4,-22.3c-12.3,0,-22.3,10,-22.3,22.3c0,12.4,10,22.4,22.3,22.4c12.4,0,22.4,-10,22.4,-22.4Z" class="g2_1" />
<g fill="#000000" >
<use xlink:href="#f0_1" transform="matrix(12,0,0,12,81.6,346.7)" />
<use xlink:href="#f1_4" transform="matrix(8,0,0,8,89.5,349.4)" />
</g>
<text 
x="81" 
y="346" 
dx="0" 
class="s1_1"
>q</text>

<text 
x="89" 
y="349" 
dx="0" 
class="s2_1"
>3</text>

<path d="M46.5,431.1c0,-12.3,-10,-22.3,-22.3,-22.3c-12.4,0,-22.4,10,-22.4,22.3c0,12.4,10,22.4,22.4,22.4c12.3,0,22.3,-10,22.3,-22.4Z" class="g4_1" />
<path d="M46.5,431.1c0,-12.3,-10,-22.3,-22.3,-22.3c-12.4,0,-22.4,10,-22.4,22.3c0,12.4,10,22.4,22.4,22.4c12.3,0,22.3,-10,22.3,-22.4Z" class="g5_1" />
<g fill="#000000" >
<use xlink:href="#f0_1" transform="matrix(12,0,0,12,16.6,433.3)" />
<use xlink:href="#f1_5" transform="matrix(8,0,0,8,24.5,436)" />
</g>
<text 
x="16" 
y="433" 
dx="0" 
class="s1_1"
>q</text>

<text 
x="24" 
y="436" 
dx="0" 
class="s2_1"
>4</text>

<path d="M111.5,431.1c0,-12.3,-10,-22.3,-22.4,-22.3c-12.3,0,-22.3,10,-22.3,22.3c0,12.4,10,22.4,22.3,22.4c12.4,0,22.4,-10,22.4,-22.4Z" class="g2_1" />
<g fill="#000000" >
<use xlink:href="#f0_1" transform="matrix(12,0,0,12,81.6,433.3)" />
<use xlink:href="#f1_1" transform="matrix(8,0,0,8,89.5,436)" />
</g>
<text 
x="81" 
y="433" 
dx="0" 
class="s1_1"
>q</text>

<text 
x="89" 
y="436" 
dx="0" 
class="s2_1"
>0</text>

<path d="M69.4,39.4L41.8,67.1" class="g2_1" />
<path d="M44.8,67.5C44.1,67,41.9,67.2,41.5,67.4C41.7,67,41.9,64.8,41.4,64" class="g6_1" />
<g fill="#000000" >
<use xlink:href="#f2_1" transform="matrix(12,0,0,12,61.1,68.2)" />
</g>
<text 
x="61" 
y="68" 
dx="0" 
class="s3_1"
>a</text>

<path d="M101.5,39.4l27.6,27.7" class="g2_1" />
<path d="M129.5,64c-0.5,0.8,-0.3,3,-0.1,3.4C129,67.2,126.8,67,126,67.5" class="g6_1" />
<g fill="#000000" >
<use xlink:href="#f2_1" transform="matrix(12,0,0,12,122.3,47.8)" />
</g>
<text 
x="122" 
y="47" 
dx="0" 
class="s3_1"
>a</text>

<path d="M24.5,107.5l0,39" class="g2_1" />
<path d="M26.6,144.6c-0.9,0.1,-2.3,1.8,-2.4,2.3c-0.2,-0.5,-1.5,-2.2,-2.5,-2.3" class="g6_1" />
<g fill="#000000" >
<use xlink:href="#f2_1" transform="matrix(12,0,0,12,30.5,131.9)" />
</g>
<text 
x="30" 
y="131" 
dx="0" 
class="s3_1"
>a</text>

<path d="M146.5,107.5l0,39" class="g2_1" />
<path d="M149.1,144.6c-0.9,0.1,-2.3,1.8,-2.4,2.3c-0.2,-0.5,-1.5,-2.2,-2.5,-2.3" class="g6_1" />
<g fill="#000000" >
<use xlink:href="#f2_1" transform="matrix(12,0,0,12,152.9,131.9)" />
</g>
<text 
x="152" 
y="131" 
dx="0" 
class="s3_1"
>a</text>

<path d="M24.5,193.5l0,40" class="g2_1" />
<path d="M26.6,231.2c-0.9,0.1,-2.3,1.8,-2.4,2.3C24,233,22.7,231.3,21.7,231.2" class="g6_1" />
<g fill="#000000" >
<use xlink:href="#f2_1" transform="matrix(12,0,0,12,30.5,218.5)" />
</g>
<text 
x="30" 
y="218" 
dx="0" 
class="s3_1"
>a</text>

<path d="M37.8,189.4L74.2,238" class="g2_1" />
<path d="M75.1,235.1c-0.7,0.6,-0.8,2.8,-0.6,3.3C74.1,238.1,72,237.6,71.2,238" class="g6_1" />
<g fill="#000000" >
<use xlink:href="#f2_1" transform="matrix(12,0,0,12,62.9,208.3)" />
</g>
<text 
x="62" 
y="208" 
dx="0" 
class="s3_1"
>a</text>

<path d="M24.5,280.5l0,39" class="g2_1" />
<path d="M26.6,317.8c-0.9,0.2,-2.3,1.8,-2.4,2.3C24,319.6,22.7,318,21.7,317.8" class="g6_1" />
<g fill="#000000" >
<use xlink:href="#f2_1" transform="matrix(12,0,0,12,30.5,305.1)" />
</g>
<text 
x="30" 
y="305" 
dx="0" 
class="s3_1"
>a</text>

<path d="M89.5,280.5l0,39" class="g2_1" />
<path d="M91.6,317.8c-0.9,0.2,-2.3,1.8,-2.5,2.3C89,319.6,87.6,318,86.7,317.8" class="g6_1" />
<g fill="#000000" >
<use xlink:href="#f2_1" transform="matrix(12,0,0,12,95.4,305.1)" />
</g>
<text 
x="95" 
y="305" 
dx="0" 
class="s3_1"
>a</text>

<path d="M24.5,367.5l0,38" class="g2_1" />
<path d="M26.6,404c-0.9,0.1,-2.3,1.8,-2.4,2.2C24,405.8,22.7,404.1,21.7,404" class="g6_1" />
<g fill="#000000" >
<use xlink:href="#f2_2" transform="matrix(12,0,0,12,30.5,393.9)" />
</g>
<text 
x="30" 
y="393" 
dx="0" 
class="s3_1"
>b</text>

<path d="M89.5,367.5l0,39" class="g2_1" />
<path d="M91.6,404.4c-0.9,0.2,-2.3,1.8,-2.5,2.3c-0.1,-0.5,-1.5,-2.1,-2.4,-2.3" class="g6_1" />
<g fill="#000000" >
<use xlink:href="#f2_2" transform="matrix(12,0,0,12,95.4,394.2)" />
</g>
<text 
x="95" 
y="394" 
dx="0" 
class="s3_1"
>b</text>


<defs>
	<path d="M256.7,15.3c71.8,0,139,65.7,172.6,108.5c21.4,29,21.4,32,29,58l74.9,299.5c1.5,3,6.1,22.9,6.1,24.4c0,12.2,-19.9,137.5,-120.7,137.5c-59.6,0,-131.4,-55,-183.3,-161.9C206.3,417.1,158.9,246,158.9,161.9C158.9,71.8,194,15.3,256.7,15.3ZM241.4,-296.3c-10.7,0,-19.9,4.6,-19.9,15.3c0,29,15.3,29,32.1,29c71.8,1.5,94.7,1.5,108.5,47.4l13.7,55l58.1,229L432.4,81C400.3,45.8,333.1,-15.2,252.1,-15.2C148.2,-15.2,59.6,73.3,59.6,224.6c0,226.1,186.4,449.2,359,449.2c65.7,0,113.1,-41.3,140.6,-110c29,53.4,88.6,108.4,100.8,108.4c7.6,0,13.8,-6.1,13.8,-13.7L461.4,-200c-4.6,-19.9,-6.1,-21.4,-6.1,-29.1c0,-12.2,4.6,-22.9,76.4,-22.9c22.9,0,35.1,0,35.1,-15.3c0,-29,-18.3,-29,-27.5,-29c-22.9,0,-48.9,3.1,-71.8,3.1l-155.8,0c-21.4,0,-48.9,-3.1,-70.3,-3.1Z" 
	id="f0_1"
	transform="scale(0.001,-0.001)" />

	<path d="M404.9,10.7c50.4,0,155.8,21.4,187.9,181.8c18.3,85.6,18.3,223.1,18.3,313.2c0,103.9,0,218.5,-18.3,302.5c-30.6,139,-136,165,-187.9,165c-38.2,0,-157.4,-15.3,-189.5,-171.1c-16.8,-84,-16.8,-191,-16.8,-296.4c0,-79.4,0,-223.1,16.8,-310.1C247.5,35.1,352.9,10.7,404.9,10.7Zm0,-42.7c-81,0,-194.1,29,-264.3,142c-73.4,122.2,-78,276.5,-78,377.4c0,79.4,3.1,230.7,58.1,342.2c21.4,42.8,91.7,186.4,284.2,186.4c84,0,207.7,-33.6,275,-168.1c50.4,-97.8,67.2,-197.1,67.2,-360.5c0,-99.3,-4.6,-235.3,-61.1,-345.3C609.6,-9.1,478.2,-32,404.9,-32Z" 
	id="f1_1"
	transform="scale(0.001,-0.001)" />

	<path d="M155.8,0l0,50.4l53.5,0C354.4,50.4,359,68.8,359,125.3L359,909C270.4,867.8,187.9,867.8,146.7,867.8l0,50.4c145.1,0,226.1,36.7,288.7,97.8c41.3,0,44.3,-1.6,44.3,-42.8l0,-847.9c0,-56.5,4.6,-74.9,149.7,-74.9l53.5,0L620.3,4.6l-270.4,0C218.5,4.6,418.6,0,155.8,0Z" 
	id="f1_2"
	transform="scale(0.001,-0.001)" />

	<path d="M81,0c0,38.2,0,41.3,18.3,58.1L291.8,256.7C472.1,441.5,583.6,557.6,583.6,716.5c0,128.4,-73.3,249.1,-215.4,249.1C293.3,965.6,191,927.4,146.7,815.8c18.3,0,94.7,0,94.7,-79.4c0,-58.1,-47.4,-81,-79.5,-81C140.6,655.4,81,666.1,81,741c0,135.9,120.7,275,304,275c191,0,343.8,-117.7,343.8,-299.5c0,-139,-90.2,-223,-184.9,-310.1C519.4,385,455.3,334.6,430.8,311.7L224.6,125.3l271.9,0c24.5,0,140.6,0,149.8,12.2c18.3,29,30.5,105.4,35.1,136l47.4,0L684.4,0Z" 
	id="f1_3"
	transform="scale(0.001,-0.001)" />

	<path d="M397.2,-32c-174.1,0,-330,94.6,-330,239.8c0,61.1,42.8,87.1,84.1,87.1c48.8,0,84,-35.2,84,-84.1c0,-50.4,-38.2,-85.5,-93.2,-85.5C195.6,44.3,310.1,13.8,394.2,13.8c80.9,0,189.4,56.5,189.4,247.5c0,160.4,-76.4,249,-197.1,249l-76.4,0c-25.9,0,-39.7,0,-39.7,21.4c0,19.8,12.2,21.4,41.3,22.9c93.2,6.1,128.3,9.2,174.1,56.5c21.4,24.5,65.7,88.6,65.7,195.6C551.5,964,435.4,976.3,395.7,976.3c-27.5,0,-145.1,-4.6,-209.3,-88.7c33.6,-1.5,82.5,-22.9,82.5,-79.4c0,-44.3,-30.6,-77.9,-77.9,-77.9c-39.7,0,-77.9,24.4,-77.9,81c0,116.1,123.7,204.7,287.2,204.7c158.9,0,296.4,-87.1,296.4,-209.3C696.7,684.4,606.5,580.6,485.8,537.8C641.7,504.2,742.5,388.1,742.5,261.3C742.5,108.5,600.4,-32,397.2,-32Z" 
	id="f1_4"
	transform="scale(0.001,-0.001)" />

	<path d="M487.4,301l0,563.7L99.3,301ZM319.3,0l0,50.4l35.1,0c117.7,0,122.3,16.8,122.3,73.4l0,126.8l-430.9,0l0,50.4l487.4,707.3c15.3,21.4,16.8,23,36.7,23c32,0,32,-12.3,32,-42.8l0,-687.5l162,0l0,-50.4l-162,0l0,-126.8c0,-56.6,4.6,-73.4,122.3,-73.4l35.1,0L629.4,4.6l-177.2,0C449.2,4.6,539.3,0,319.3,0Z" 
	id="f1_5"
	transform="scale(0.001,-0.001)" />

	<path d="M313.2,15.3c65.7,0,177.2,50.4,177.2,200.1l0,151.3C435.4,363.6,175.7,345.3,175.7,143.6C175.7,70.3,238.3,15.3,313.2,15.3ZM301,-15.2C207.8,-15.2,67.2,22.9,67.2,143.6c0,117.7,116.1,246,423.2,250.6l0,61.1c0,137.5,-90.1,195.5,-160.4,195.5c-61.1,0,-134.4,-27.5,-169.6,-91.6c22.9,0,77.9,0,77.9,-62.7c0,-36.6,-25.9,-62.6,-62.6,-62.6c-35.1,0,-64.2,21.4,-64.2,65.7c0,99.3,96.3,181.8,221.6,181.8c67.2,0,135.9,-21.4,189.4,-70.3c67.2,-59.6,67.2,-120.7,67.2,-203.2l0,-267.3c0,-23,0,-103.9,58.1,-103.9c21.4,0,58,12.2,58,99.3l0,85.5l33.6,0l0,-85.5C739.4,13.8,650.8,-7.5,618.8,-7.5c-65.7,0,-113.1,54.9,-119.2,126.7C470.6,45.8,401.8,-15.2,301,-15.2Z" 
	id="f2_1"
	transform="scale(0.001,-0.001)" />

	<path d="M440,15.3c76.4,0,137.5,47.3,168.1,94.7C644.7,165,660,229.2,660,331.5C660,624.9,499.6,643.2,453.8,643.2C378.9,643.2,311.7,598.9,275,543.9c-16.8,-24.5,-16.8,-27.5,-16.8,-55l0,-314.7c0,-26,0,-32.1,19.9,-64.2C304,68.8,357.5,15.3,440,15.3Zm6.1,-30.5c-97.8,0,-163.5,58,-198.6,114.5C241.4,88.6,198.6,12.2,192.5,0L158.9,0l0,913.6c0,74.9,-12.2,85.6,-116.1,85.6l0,44.3l212.3,16.8l0,-488.9c52,64.2,123.8,102.4,207.8,102.4C632.5,673.8,776.1,524,776.1,330c0,-197.1,-154.3,-345.2,-330,-345.2Z" 
	id="f2_2"
	transform="scale(0.001,-0.001)" />


</defs>

<!-- Any embedded fonts defined here -->
<style type="text/css" ><![CDATA[

@font-face {
	font-family: CMMI12_7;
	src: url("fonts/CMMI12_7.woff") format("woff");
}

@font-face {
	font-family: CMR12_9;
	src: url("fonts/CMR12_9.woff") format("woff");
}

@font-face {
	font-family: CMR8_8;
	src: url("fonts/CMR8_8.woff") format("woff");
}

]]></style>

</svg>
